# Blender 3.5.1
# www.blender.org
mtllib vaca_pataFR.mtl
o pataFR
v 0.172346 -0.128480 -0.130295
v 0.187587 -0.122884 0.032716
v 0.002781 0.083976 0.337837
v 0.035584 -0.040663 -0.293312
v -0.271301 0.210600 -0.027385
v -0.134085 -0.121347 -0.083130
v 0.087972 -0.332962 -0.147104
v 0.005502 -0.294962 -0.019933
v 0.068327 -0.423495 -0.039013
v 0.076053 -0.321986 0.093674
v -0.114561 -0.016339 0.208726
v 0.201776 -0.319567 0.013031
v 0.124258 -0.411703 -0.088049
v 0.138094 -0.609750 -0.096941
v 0.178721 -0.433542 -0.007145
v 0.114381 -0.384918 0.042045
v 0.048126 -0.625876 -0.021630
v 0.133046 -0.647013 -0.048969
v 0.079383 -0.710606 -0.025180
v 0.159017 -0.709315 -0.006496
v 0.060264 -0.772323 -0.019495
v 0.163361 -0.772323 0.005652
v 0.022233 -0.772323 0.086726
v 0.084875 -0.668723 0.043173
v 0.082145 -0.709265 0.124127
v 0.072595 -0.772323 0.163897
v 0.154702 -0.772323 0.115100
v 0.124327 -0.661595 0.065277
v 0.182929 -0.610805 0.005828
v 0.095168 -0.605973 0.070511
v -0.131446 0.126956 0.268653
v -0.152764 0.084103 -0.183302
v 0.301814 0.060077 -0.157794
v 0.317055 0.065673 0.005217
v 0.132249 0.272533 0.310338
v 0.165052 0.147894 -0.320811
v -0.141833 0.399157 -0.054884
v -0.001978 0.315513 0.241154
v -0.023296 0.272660 -0.210800
vn -0.8602 -0.2845 -0.4232
vn -0.6417 -0.3825 -0.6648
vn -0.6090 -0.4394 -0.6603
vn -0.7044 -0.6607 -0.2594
vn -0.8319 -0.3417 -0.4374
vn -0.8026 -0.4504 0.3913
vn -0.7438 -0.5853 0.3227
vn -0.7970 -0.5494 0.2510
vn -0.8920 -0.4031 0.2047
vn -0.9003 -0.2539 0.3536
vn -0.5171 -0.3814 0.7663
vn -0.3851 -0.5257 0.7585
vn 0.5054 -0.3759 0.7767
vn 0.8585 0.0106 0.5128
vn 0.9921 0.0811 -0.0955
vn 0.7929 -0.2828 -0.5398
vn 0.8161 -0.0554 -0.5753
vn -0.4113 -0.6606 -0.6280
vn -0.6577 -0.0121 -0.7531
vn 0.8369 0.0828 -0.5411
vn 0.8196 -0.0650 -0.5693
vn 0.4654 -0.2447 0.8506
vn 0.5132 -0.3355 0.7900
vn -0.4051 -0.7146 0.5703
vn -0.8871 0.1267 0.4438
vn -0.6417 -0.0018 -0.7670
vn -0.3691 -0.7147 -0.5940
vn -0.3234 -0.0798 -0.9429
vn 0.2065 -0.4909 -0.8464
vn 0.2280 -0.1591 -0.9606
vn 0.2336 -0.1685 -0.9576
vn -0.9110 0.2522 -0.3262
vn -0.8734 0.4434 -0.2015
vn -0.7725 0.5778 0.2633
vn -0.7575 0.4265 0.4943
vn 0.4633 0.4215 0.7796
vn 0.4960 0.4658 0.7328
vn 0.9140 0.3460 0.2117
vn 0.7896 -0.2611 0.5553
vn 0.7697 -0.1081 -0.6292
vn 0.7679 -0.5425 -0.3406
vn 0.9165 -0.0075 -0.3999
vn 0.6392 0.0712 0.7657
vn 0.5943 0.0517 0.8025
vn -0.8941 0.1328 0.4278
vn -0.8842 -0.0570 0.4637
vn -0.4237 -0.3025 0.8538
vn -0.3772 0.8331 0.4045
vn -0.8963 -0.3424 0.2818
vn -0.0000 -1.0000 -0.0000
vn 0.5852 0.2337 0.7765
vn 0.6834 -0.2249 -0.6945
vn 0.9934 0.0836 0.0786
vn -0.4185 0.1569 -0.8945
vn 0.5561 0.8245 -0.1044
vn 0.8191 -0.5708 -0.0570
vn -0.3350 0.3572 0.8719
vn 0.6672 -0.3632 0.6503
vn -0.6894 0.5432 0.4792
vn 0.5351 -0.4698 -0.7021
vn -0.6140 0.3161 -0.7233
vn 0.6746 0.7329 -0.0882
vn 0.5483 0.8362 -0.0096
vn 0.6603 0.7441 -0.1017
vn 0.4097 0.8774 -0.2498
vt 0.300000 0.180000
vt 0.270000 0.190000
vt 0.200000 0.200000
vt 0.340000 0.190000
vt 0.280000 0.240000
vt 0.290000 0.180000
vt 0.310000 0.130000
vt 0.270000 0.140000
vt 0.280000 0.110000
vt 0.230000 0.130000
vt 0.230000 0.200000
vt 0.270000 0.140000
vt 0.310000 0.110000
vt 0.310000 0.060000
vt 0.280000 0.110000
vt 0.250000 0.120000
vt 0.280000 0.050000
vt 0.300000 0.050000
vt 0.290000 0.020000
vt 0.320000 0.020000
vt 0.290000 0.020000
vt 0.290000 0.010000
vt 0.540000 0.010000
vt 0.320000 0.010000
vt 0.490000 0.010000
vt 0.290000 0.010000
vt 0.260000 0.010000
vt 0.550000 0.060000
vt 0.270000 0.040000
vt 0.230000 0.030000
vt 0.230000 0.010000
vt 0.520000 0.090000
vt 0.480000 0.060000
vt 0.260000 0.010000
vt 0.250000 0.050000
vt 0.270000 0.040000
vt 0.280000 0.050000
vt 0.250000 0.060000
vt 0.218959 0.225762
vt 0.318043 0.215054
vt 0.300000 0.180000
vt 0.270000 0.190000
vt 0.200000 0.200000
vt 0.340000 0.190000
vt 0.280000 0.240000
vt 0.218959 0.225762
vt 0.318043 0.215054
s 0
usemtl material_009C21CE
f 6/6/1 5/5/1 32/40/1
f 4/4/2 6/6/2 32/40/2
f 6/6/3 4/4/3 7/7/3
f 7/7/4 8/8/4 6/6/4
f 8/8/5 7/7/5 9/9/5
f 8/8/6 9/9/6 10/10/6
f 8/8/7 10/10/7 11/11/7
f 6/6/8 8/8/8 11/11/8
f 5/5/9 6/6/9 11/11/9
f 11/11/10 31/39/10 5/5/10
f 3/3/11 31/39/11 11/11/11
f 10/10/12 3/3/12 11/11/12
f 12/12/13 3/3/13 10/10/13
f 3/3/14 12/12/14 2/2/14
f 1/1/15 2/2/15 12/12/15
f 7/7/16 1/1/16 12/12/16
f 7/7/17 12/12/17 13/13/17
f 7/7/18 13/13/18 9/9/18
f 13/13/19 14/14/19 9/9/19
f 13/13/20 15/15/20 14/14/20
f 13/13/21 12/12/21 15/15/21
f 16/16/22 15/15/22 12/12/22
f 10/10/23 16/16/23 12/12/23
f 9/9/24 16/16/24 10/10/24
f 17/17/25 16/16/25 9/9/25
f 14/14/26 17/17/26 9/9/26
f 18/18/27 17/17/27 14/14/27
f 19/19/28 17/17/28 18/18/28
f 20/20/29 19/19/29 18/18/29
f 21/22/30 19/19/30 20/20/30
f 22/24/31 21/22/31 20/20/31
f 21/22/32 23/27/32 19/19/32
f 23/27/33 24/29/33 19/19/33
f 23/27/34 25/30/34 24/29/34
f 23/27/35 26/31/35 25/30/35
f 25/30/36 26/31/36 27/34/36
f 28/36/37 25/30/37 27/34/37
f 20/21/38 28/36/38 27/34/38
f 29/37/39 28/36/39 20/21/39
f 20/21/40 18/18/40 29/37/40
f 18/18/41 14/14/41 29/37/41
f 15/15/42 29/37/42 14/14/42
f 16/16/43 29/37/43 15/15/43
f 16/16/44 30/38/44 29/37/44
f 17/17/45 30/38/45 16/16/45
f 30/38/46 17/17/46 24/29/46
f 28/35/47 30/38/47 24/29/47
f 25/30/48 28/35/48 24/29/48
f 19/19/49 24/29/49 17/17/49
f 22/25/50 27/33/50 26/32/50
f 22/25/50 26/32/50 21/23/50
f 26/32/50 23/28/50 21/23/50
f 29/37/51 30/38/51 28/36/51
f 7/7/52 4/4/52 1/1/52
f 20/21/53 27/34/53 22/26/53
f 4/4/54 39/47/54 36/44/54
f 33/41/55 39/47/55 38/46/55
f 1/1/56 34/42/56 2/2/56
f 3/3/57 38/46/57 31/39/57
f 3/3/58 34/42/58 35/43/58
f 5/5/59 38/46/59 37/45/59
f 4/4/60 33/41/60 1/1/60
f 5/5/61 39/47/61 32/40/61
f 4/4/54 32/40/54 39/47/54
f 35/43/62 34/42/62 33/41/62
f 33/41/63 36/44/63 39/47/63
f 39/47/64 37/45/64 38/46/64
f 38/46/65 35/43/65 33/41/65
f 1/1/56 33/41/56 34/42/56
f 3/3/57 35/43/57 38/46/57
f 3/3/58 2/2/58 34/42/58
f 5/5/59 31/39/59 38/46/59
f 4/4/60 36/44/60 33/41/60
f 5/5/61 37/45/61 39/47/61
