# Blender 3.5.1
# www.blender.org
mtllib vaca_pataBL.mtl
o pataBL
v -0.235152 0.118015 -0.262523
v 0.005882 0.268992 -0.399987
v 0.300634 0.294970 -0.168501
v 0.272266 0.063631 -0.164680
v 0.312316 0.121149 0.279509
v -0.253019 -0.170520 -0.086614
v -0.000074 -0.163355 0.281997
v 0.091992 -0.274362 0.195663
v -0.081961 -0.316233 0.137147
v -0.064471 -0.449169 0.023755
v 0.010716 -0.358174 -0.052841
v -0.079444 -0.228596 -0.242110
v -0.142037 -0.635534 -0.130463
v -0.212922 -0.383446 -0.148491
v -0.046298 -0.429824 -0.290119
v -0.071161 -0.642233 -0.188916
v 0.028508 -0.429824 -0.249861
v -0.026452 -0.675717 -0.091644
v -0.102922 -0.652785 -0.044182
v -0.025208 -0.840706 -0.058711
v -0.052279 -0.842000 -0.197842
v -0.083964 -0.884709 -0.145004
v -0.061470 -0.938974 -0.090324
v -0.134679 -0.937682 -0.126800
v -0.050386 -1.000690 -0.073741
v -0.145778 -1.000690 -0.120226
v -0.088953 -1.000690 0.032287
v -0.109344 -0.897090 -0.041231
v -0.158941 -0.937632 0.022810
v -0.153819 -0.889962 -0.049417
v -0.132411 -0.829887 -0.022900
v -0.166270 -0.817496 -0.113738
v -0.176991 -1.000690 0.059512
v -0.209013 -1.000690 -0.030472
v 0.128911 -0.113563 0.298841
v -0.393378 0.268703 -0.051225
v -0.152344 0.419680 -0.188689
v -0.411245 0.022368 0.059157
v 0.142408 0.445658 0.042797
v 0.154090 0.314037 0.425280
v -0.158300 0.029533 0.427768
v -0.240187 -0.123345 0.282917
v -0.029315 0.079325 0.444612
vn 0.6200 -0.0889 -0.7795
vn 0.9897 -0.1226 -0.0734
vn -0.0929 -0.6581 0.7471
vn -0.0954 -0.6532 0.7511
vn 0.7586 -0.6509 -0.0286
vn 0.8355 -0.5420 -0.0904
vn 0.5733 -0.5228 -0.6310
vn 0.4622 -0.3392 -0.8193
vn -0.3748 -0.2214 -0.9003
vn -0.6876 -0.3465 -0.6381
vn -0.6666 -0.2380 -0.7064
vn -0.6272 -0.2740 -0.7291
vn 0.4281 -0.4291 -0.7954
vn 0.4554 0.2769 -0.8462
vn 0.8759 0.4735 -0.0931
vn 0.9819 -0.1316 0.1365
vn 0.7945 -0.1644 0.5846
vn 0.4128 -0.3575 0.8378
vn 0.5556 0.1668 0.8146
vn 0.9812 -0.0307 -0.1906
vn 0.7110 -0.6907 -0.1319
vn 0.8514 -0.1527 -0.5018
vn 0.3525 -0.5877 -0.7283
vn 0.4380 -0.1591 -0.8848
vn 0.4318 -0.1685 -0.8861
vn 0.9094 0.2522 0.3308
vn 0.8008 0.4434 0.4027
vn 0.4263 0.5778 0.6960
vn 0.0319 0.8331 0.5521
vn -0.2215 -0.3266 0.9188
vn 0.2990 -0.1542 0.9417
vn 0.4451 -0.4189 0.7915
vn 0.3217 0.0600 0.9449
vn -0.9099 0.1955 0.3658
vn -0.8871 0.1580 0.4337
vn -0.9031 -0.2279 0.3639
vn -0.7683 -0.0673 0.6365
vn -0.7448 -0.4870 0.4561
vn -0.8420 -0.2906 0.4544
vn -0.6455 0.0985 -0.7574
vn -0.6326 0.0796 -0.7704
vn -0.5969 -0.4102 -0.6895
vn -0.3476 0.0105 -0.9376
vn -0.9657 -0.2442 -0.0882
vn -0.9164 0.1658 0.3642
vn -0.6354 0.0137 -0.7720
vn -0.5964 -0.0205 -0.8024
vn 0.9168 0.1039 -0.3856
vn 0.7217 -0.4814 -0.4974
vn -0.0000 -1.0000 -0.0000
vn 0.8749 -0.4840 -0.0162
vn -0.8497 0.4658 0.2472
vn -0.8386 0.3460 -0.4208
vn -0.8146 0.0836 -0.5739
vn -0.8543 0.4215 0.3040
vn 0.2672 0.4265 0.8641
vn 0.1061 -0.5541 0.8256
vn 0.6905 -0.4962 0.5263
vn -0.7252 -0.6794 0.1119
vn -0.7601 0.6079 0.2294
vn 0.8198 0.5487 0.1638
vn -0.1060 -0.6534 0.7495
vn 0.1018 -0.5453 0.8321
vn 0.2578 0.8674 -0.4256
vn -0.8428 -0.1680 -0.5113
vn 0.4454 -0.2779 0.8511
vn -0.6181 0.3428 -0.7074
vn -0.3484 0.8712 0.3459
vn -0.6135 0.3596 0.7031
vn -0.1950 0.7276 -0.6577
vn -0.7568 0.6106 0.2332
vn -0.3155 0.5411 0.7795
vn 0.8016 0.5641 0.1980
vn -0.8091 -0.2686 -0.5228
vt 0.950000 0.270000
vt 0.910000 0.300000
vt 0.850000 0.300000
vt 0.850000 0.270000
vt 0.780000 0.260000
vt 0.850000 0.230000
vt 0.960000 0.220000
vt 0.740000 0.180000
vt 0.800000 0.180000
vt 0.790000 0.150000
vt 0.800000 0.180000
vt 0.830000 0.150000
vt 0.860000 0.160000
vt 0.910000 0.210000
vt 0.880000 0.100000
vt 0.860000 0.160000
vt 0.910000 0.160000
vt 0.910000 0.100000
vt 0.900000 0.160000
vt 0.880000 0.100000
vt 0.850000 0.110000
vt 0.880000 0.050000
vt 0.910000 0.060000
vt 0.910000 0.050000
vt 0.890000 0.020000
vt 0.920000 0.020000
vt 0.890000 0.020000
vt 0.890000 0.010000
vt 0.540000 0.010000
vt 0.920000 0.010000
vt 0.490000 0.010000
vt 0.890000 0.010000
vt 0.550000 0.060000
vt 0.860000 0.010000
vt 0.870000 0.040000
vt 0.840000 0.030000
vt 0.850000 0.050000
vt 0.870000 0.040000
vt 0.850000 0.060000
vt 0.880000 0.050000
vt 0.520000 0.090000
vt 0.830000 0.010000
vt 0.480000 0.060000
vt 0.860000 0.010000
vt 0.778470 0.212295
vt 0.950000 0.270000
vt 0.910000 0.300000
vt 0.850000 0.230000
vt 0.960000 0.220000
vt 0.850000 0.300000
vt 0.780000 0.260000
vt 0.740000 0.180000
vt 0.800000 0.180000
vt 0.790000 0.150000
vt 0.778470 0.212295
s 0
usemtl material_009C21CE
f 4/4/1 2/2/1 3/3/1
f 5/5/2 4/4/2 3/3/2
f 9/10/3 8/9/3 7/8/3
f 10/12/4 8/9/4 9/10/4
f 8/9/5 10/12/5 11/13/5
f 11/13/6 4/4/6 8/9/6
f 4/4/7 11/13/7 12/14/7
f 12/14/8 2/2/8 4/4/8
f 1/1/9 2/2/9 12/14/9
f 1/1/10 12/14/10 6/7/10
f 13/15/11 14/16/11 15/17/11
f 15/17/12 16/18/12 13/15/12
f 17/19/13 16/18/13 15/17/13
f 17/19/14 15/17/14 12/14/14
f 11/13/15 17/19/15 12/14/15
f 18/20/16 17/19/16 11/13/16
f 11/13/17 10/12/17 18/20/17
f 18/20/18 10/12/18 19/21/18
f 18/20/19 19/21/19 20/22/19
f 20/22/20 21/23/20 18/20/20
f 20/22/21 22/24/21 21/23/21
f 22/24/22 20/22/22 23/25/22
f 24/26/23 22/24/23 23/25/23
f 24/26/24 23/25/24 25/28/24
f 26/30/25 24/26/25 25/28/25
f 25/28/26 23/25/26 27/34/26
f 27/34/27 23/25/27 28/35/27
f 28/35/28 29/36/28 27/34/28
f 28/35/29 30/37/29 29/36/29
f 28/35/30 31/39/30 30/37/30
f 20/22/31 31/39/31 28/35/31
f 23/25/32 20/22/32 28/35/32
f 20/22/33 19/21/33 31/39/33
f 19/21/34 32/40/34 31/39/34
f 19/21/35 13/15/35 32/40/35
f 14/16/36 13/15/36 19/21/36
f 14/16/37 19/21/37 10/12/37
f 10/12/38 9/11/38 14/16/38
f 14/16/39 9/11/39 6/6/39
f 6/6/40 12/14/40 14/16/40
f 14/16/41 12/14/41 15/17/41
f 32/40/42 21/23/42 22/24/42
f 24/27/43 32/40/43 22/24/43
f 30/38/44 32/40/44 24/27/44
f 31/39/45 32/40/45 30/38/45
f 16/18/46 32/40/46 13/15/46
f 21/23/47 32/40/47 16/18/47
f 18/20/48 21/23/48 16/18/48
f 16/18/49 17/19/49 18/20/49
f 26/31/50 33/41/50 34/43/50
f 25/29/50 33/41/50 26/31/50
f 25/29/50 27/33/50 33/41/50
f 8/9/51 4/4/51 5/5/51
f 34/44/52 29/36/52 30/38/52
f 30/38/53 24/27/53 34/44/53
f 34/44/54 24/27/54 26/32/54
f 33/42/55 29/36/55 34/44/55
f 27/34/56 29/36/56 33/42/56
f 35/45/57 7/8/57 8/9/57
f 5/5/58 35/45/58 8/9/58
f 6/6/59 42/53/59 38/48/59
f 42/54/60 43/55/60 39/50/60
f 5/5/61 39/50/61 40/51/61
f 7/8/62 42/54/62 9/10/62
f 7/8/63 43/55/63 41/52/63
f 3/3/64 37/47/64 39/50/64
f 1/1/65 38/49/65 36/46/65
f 5/5/66 43/55/66 35/45/66
f 1/1/67 37/47/67 2/2/67
f 6/6/59 9/11/59 42/53/59
f 39/50/68 37/47/68 36/46/68
f 36/46/69 38/48/69 42/54/69
f 42/54/70 41/52/70 43/55/70
f 43/55/71 40/51/71 39/50/71
f 39/50/72 36/46/72 42/54/72
f 5/5/73 3/3/73 39/50/73
f 7/8/62 41/52/62 42/54/62
f 7/8/63 35/45/63 43/55/63
f 3/3/64 2/2/64 37/47/64
f 1/1/74 6/7/74 38/49/74
f 5/5/66 40/51/66 43/55/66
f 1/1/67 36/46/67 37/47/67
