# Blender 3.5.1
# www.blender.org
mtllib vaca_pataFL.mtl
o pataFL
v 0.007590 0.072324 0.324210
v -0.177216 -0.134536 0.019089
v -0.161975 -0.140132 -0.143922
v -0.025213 -0.052315 -0.306939
v 0.281672 0.198948 -0.041012
v 0.144456 -0.132999 -0.096757
v -0.077601 -0.344614 -0.160731
v 0.004869 -0.306614 -0.033560
v -0.057956 -0.435147 -0.052640
v -0.065682 -0.333638 0.080047
v 0.124932 -0.027991 0.195099
v -0.191405 -0.331219 -0.000596
v -0.113887 -0.423355 -0.101676
v -0.127723 -0.621402 -0.110568
v -0.168350 -0.445194 -0.020772
v -0.104010 -0.396570 0.028418
v -0.037755 -0.637528 -0.035257
v -0.122675 -0.658665 -0.062596
v -0.069012 -0.722258 -0.038807
v -0.148646 -0.720967 -0.020123
v -0.049893 -0.783975 -0.033122
v -0.152990 -0.783975 -0.007975
v -0.011862 -0.783975 0.073099
v -0.074504 -0.680375 0.029546
v -0.071774 -0.720917 0.110500
v -0.062224 -0.783975 0.150270
v -0.144331 -0.783975 0.101473
v -0.113956 -0.673247 0.051650
v -0.172558 -0.622457 -0.007799
v -0.084797 -0.617625 0.056884
v 0.162631 0.066909 -0.194227
v 0.140063 0.100417 0.248800
v -0.108747 0.246117 0.299748
v -0.293553 0.039257 -0.005373
v -0.278312 0.033661 -0.168384
v -0.141550 0.121478 -0.331401
v 0.165335 0.372741 -0.065474
v 0.046294 0.240702 -0.218689
v 0.023726 0.274210 0.224338
vn 0.8602 -0.2845 -0.4232
vn 0.6417 -0.3825 -0.6648
vn 0.6090 -0.4394 -0.6603
vn 0.7044 -0.6607 -0.2594
vn 0.8319 -0.3417 -0.4374
vn 0.8026 -0.4504 0.3913
vn 0.7438 -0.5853 0.3227
vn 0.7970 -0.5494 0.2510
vn 0.8920 -0.4031 0.2047
vn 0.9003 -0.2539 0.3536
vn 0.3851 -0.5257 0.7585
vn -0.5054 -0.3759 0.7767
vn -0.8585 0.0106 0.5128
vn -0.9921 0.0811 -0.0955
vn -0.7929 -0.2828 -0.5398
vn -0.8161 -0.0554 -0.5753
vn 0.4113 -0.6606 -0.6280
vn 0.6577 -0.0121 -0.7531
vn -0.8369 0.0828 -0.5410
vn -0.8196 -0.0650 -0.5693
vn -0.4654 -0.2447 0.8506
vn -0.5132 -0.3355 0.7900
vn 0.4051 -0.7146 0.5703
vn 0.8871 0.1267 0.4438
vn 0.6417 -0.0018 -0.7670
vn 0.3691 -0.7147 -0.5940
vn 0.3234 -0.0798 -0.9429
vn -0.2065 -0.4909 -0.8464
vn -0.2280 -0.1591 -0.9606
vn -0.2336 -0.1685 -0.9576
vn 0.9110 0.2522 -0.3262
vn 0.8734 0.4434 -0.2015
vn 0.7725 0.5778 0.2633
vn 0.7575 0.4265 0.4943
vn -0.4633 0.4215 0.7796
vn -0.4960 0.4658 0.7328
vn -0.9140 0.3460 0.2117
vn -0.7896 -0.2611 0.5553
vn -0.7697 -0.1081 -0.6292
vn -0.7679 -0.5425 -0.3406
vn -0.9165 -0.0075 -0.3999
vn -0.6392 0.0712 0.7657
vn -0.5943 0.0517 0.8025
vn 0.8941 0.1328 0.4278
vn 0.8842 -0.0570 0.4637
vn 0.4237 -0.3025 0.8538
vn 0.3772 0.8331 0.4045
vn 0.8963 -0.3424 0.2818
vn -0.0000 -1.0000 -0.0000
vn -0.5852 0.2337 0.7765
vn -0.6834 -0.2249 -0.6945
vn -0.9934 0.0836 0.0786
vn 0.5171 -0.3814 0.7663
vn 0.6793 0.5267 0.5110
vn -0.5455 0.8332 -0.0908
vn -0.5415 -0.4614 -0.7028
vn 0.3947 0.3819 0.8357
vn 0.6078 0.3036 -0.7338
vn -0.8258 -0.5610 -0.0580
vn 0.4297 0.1626 -0.8882
vn -0.6712 -0.3579 0.6492
vn -0.3806 0.8560 -0.3498
vn -0.6858 0.7222 -0.0896
vn -0.5374 0.8433 0.0035
vn -0.5550 0.8280 -0.0803
vt 0.200000 0.200000
vt 0.270000 0.190000
vt 0.300000 0.180000
vt 0.340000 0.190000
vt 0.280000 0.240000
vt 0.290000 0.180000
vt 0.310000 0.130000
vt 0.270000 0.140000
vt 0.280000 0.110000
vt 0.230000 0.130000
vt 0.230000 0.200000
vt 0.270000 0.140000
vt 0.310000 0.110000
vt 0.310000 0.060000
vt 0.280000 0.110000
vt 0.250000 0.120000
vt 0.280000 0.050000
vt 0.300000 0.050000
vt 0.290000 0.020000
vt 0.320000 0.020000
vt 0.290000 0.020000
vt 0.290000 0.010000
vt 0.540000 0.010000
vt 0.320000 0.010000
vt 0.490000 0.010000
vt 0.290000 0.010000
vt 0.260000 0.010000
vt 0.550000 0.060000
vt 0.270000 0.040000
vt 0.230000 0.030000
vt 0.230000 0.010000
vt 0.520000 0.090000
vt 0.480000 0.060000
vt 0.260000 0.010000
vt 0.250000 0.050000
vt 0.270000 0.040000
vt 0.280000 0.050000
vt 0.250000 0.060000
vt 0.317287 0.214109
vt 0.220106 0.223085
vt 0.200000 0.200000
vt 0.270000 0.190000
vt 0.300000 0.180000
vt 0.340000 0.190000
vt 0.280000 0.240000
vt 0.317287 0.214109
vt 0.220106 0.223085
s 0
usemtl material_009C21CE
f 6/6/1 31/39/1 5/5/1
f 4/4/2 31/39/2 6/6/2
f 6/6/3 7/7/3 4/4/3
f 7/7/4 6/6/4 8/8/4
f 8/8/5 9/9/5 7/7/5
f 8/8/6 10/10/6 9/9/6
f 8/8/7 11/11/7 10/10/7
f 6/6/8 11/11/8 8/8/8
f 5/5/9 11/11/9 6/6/9
f 11/11/10 5/5/10 32/40/10
f 10/10/11 11/11/11 1/1/11
f 12/12/12 10/10/12 1/1/12
f 1/1/13 2/2/13 12/12/13
f 3/3/14 12/12/14 2/2/14
f 7/7/15 12/12/15 3/3/15
f 7/7/16 13/13/16 12/12/16
f 7/7/17 9/9/17 13/13/17
f 13/13/18 9/9/18 14/14/18
f 13/13/19 14/14/19 15/15/19
f 13/13/20 15/15/20 12/12/20
f 16/16/21 12/12/21 15/15/21
f 10/10/22 12/12/22 16/16/22
f 9/9/23 10/10/23 16/16/23
f 17/17/24 9/9/24 16/16/24
f 14/14/25 9/9/25 17/17/25
f 18/18/26 14/14/26 17/17/26
f 19/19/27 18/18/27 17/17/27
f 20/20/28 18/18/28 19/19/28
f 20/20/29 19/19/29 21/22/29
f 22/24/30 20/20/30 21/22/30
f 21/22/31 19/19/31 23/27/31
f 23/27/32 19/19/32 24/29/32
f 23/27/33 24/29/33 25/30/33
f 23/27/34 25/30/34 26/31/34
f 25/30/35 27/34/35 26/31/35
f 28/36/36 27/34/36 25/30/36
f 20/21/37 27/34/37 28/36/37
f 29/37/38 20/21/38 28/36/38
f 20/21/39 29/37/39 18/18/39
f 18/18/40 29/37/40 14/14/40
f 15/15/41 14/14/41 29/37/41
f 16/16/42 15/15/42 29/37/42
f 16/16/43 29/37/43 30/38/43
f 17/17/44 16/16/44 30/38/44
f 30/38/45 24/29/45 17/17/45
f 28/35/46 24/29/46 30/38/46
f 25/30/47 24/29/47 28/35/47
f 19/19/48 17/17/48 24/29/48
f 22/25/49 26/32/49 27/33/49
f 22/25/49 21/23/49 26/32/49
f 26/32/49 21/23/49 23/28/49
f 29/37/50 28/36/50 30/38/50
f 7/7/51 3/3/51 4/4/51
f 20/21/52 22/26/52 27/34/52
f 32/40/53 1/1/53 11/11/53
f 5/5/54 39/47/54 32/40/54
f 39/47/55 38/46/55 35/43/55
f 4/4/56 35/43/56 36/44/56
f 1/1/57 39/47/57 33/41/57
f 5/5/58 38/46/58 37/45/58
f 3/3/59 34/42/59 35/43/59
f 4/4/60 38/46/60 31/39/60
f 1/1/61 34/42/61 2/2/61
f 5/5/54 37/45/54 39/47/54
f 34/42/62 33/41/62 39/47/62
f 39/47/63 37/45/63 38/46/63
f 38/46/64 36/44/64 35/43/64
f 35/43/65 34/42/65 39/47/65
f 4/4/56 3/3/56 35/43/56
f 1/1/57 32/40/57 39/47/57
f 5/5/58 31/39/58 38/46/58
f 3/3/59 2/2/59 34/42/59
f 4/4/60 36/44/60 38/46/60
f 1/1/61 33/41/61 34/42/61
