# Blender 3.5.1
# www.blender.org
mtllib vaca_cola1.mtl
o cola
v 0.000000 -0.103672 -0.008193
v -0.066019 -0.063999 -0.047891
v 0.000000 -0.359571 -0.026246
v 0.066019 -0.063999 -0.047891
v 0.093272 0.008618 0.013174
v 0.000000 0.000845 -0.077762
v 0.000000 0.081651 -0.023462
v -0.093272 0.008618 0.013174
v -0.039203 -0.359571 -0.060829
v 0.000000 -0.352503 -0.109257
v 0.039203 -0.359571 -0.060829
v 0.000000 -0.099411 0.043525
v 0.093272 0.012879 0.064892
v -0.093272 0.012879 0.064892
v 0.000000 0.085912 0.028256
v 0.000000 -0.399499 -0.049467
v -0.032590 -0.399499 -0.066032
v 0.000000 -0.392431 -0.089229
v 0.032590 -0.399499 -0.066032
vn -0.5403 -0.0592 0.8394
vn 0.5403 -0.0592 0.8394
vn 0.6430 -0.6197 0.4500
vn 0.6426 0.3373 -0.6879
vn 0.6065 0.4435 -0.6600
vn -0.6065 0.4435 -0.6600
vn -0.6426 0.3373 -0.6879
vn -0.6430 -0.6197 0.4500
vn -0.6587 -0.0924 0.7467
vn -0.7735 -0.0425 -0.6324
vn -0.4737 0.0782 -0.8772
vn 0.4737 0.0782 -0.8772
vn 0.7735 -0.0425 -0.6324
vn 0.6587 -0.0924 0.7467
vn -0.7632 -0.6440 0.0531
vn 0.3109 0.0780 0.9472
vn -0.6306 0.7734 -0.0637
vn 0.6306 0.7734 -0.0637
vn 0.7632 -0.6440 0.0531
vn 0.7152 -0.3134 -0.6247
vn -0.0886 -0.9807 -0.1743
vn -0.6064 -0.3998 0.6874
vn 0.4451 -0.1878 0.8756
vn -0.5813 0.0098 -0.8137
vn -0.3109 0.0780 0.9472
vn 0.5813 0.0098 -0.8137
vn 0.0886 -0.9807 -0.1743
vn -0.4451 -0.1878 0.8756
vn 0.6064 -0.3998 0.6874
vn -0.7152 -0.3134 -0.6247
vt 0.510000 0.940000
vt 0.500000 0.960000
vt 0.560000 0.930000
vt 0.500000 0.960000
vt 0.480000 0.960000
vt 0.490000 0.990000
vt 0.480000 0.990000
vt 0.480000 0.960000
vt 0.560000 0.960000
vt 0.560000 0.990000
vt 0.560000 0.960000
vt 0.510000 0.940000
vt 0.480000 0.960000
vt 0.480000 0.960000
vt 0.480000 0.990000
vt 0.560000 0.930000
vt 0.560000 0.960000
vt 0.560000 0.990000
vt 0.560000 0.960000
s 0
usemtl material_009C21CE
f 1/1/1 2/2/1 3/3/1
f 1/1/2 3/3/2 4/4/2
f 1/1/3 4/4/3 5/5/3
f 5/5/4 4/4/4 6/6/4
f 5/5/5 6/6/5 7/7/5
f 8/8/6 7/7/6 6/6/6
f 8/8/7 6/6/7 2/2/7
f 1/1/8 8/8/8 2/2/8
f 2/2/9 9/9/9 3/3/9
f 10/10/10 9/9/10 2/2/10
f 6/6/11 10/10/11 2/2/11
f 6/6/12 4/4/12 10/10/12
f 10/10/13 4/4/13 11/11/13
f 3/3/14 11/11/14 4/4/14
f 8/8/15 12/12/15 14/14/15
f 12/12/16 15/15/16 14/14/16
f 8/8/17 15/15/17 7/7/17
f 5/5/18 15/15/18 13/13/18
f 5/5/19 12/12/19 1/1/19
f 11/11/20 18/18/20 10/10/20
f 16/16/21 18/18/21 19/19/21
f 9/9/22 16/16/22 3/3/22
f 11/11/23 16/16/23 19/19/23
f 9/9/24 18/18/24 17/17/24
f 8/8/15 1/1/15 12/12/15
f 12/12/25 13/13/25 15/15/25
f 8/8/17 14/14/17 15/15/17
f 5/5/18 7/7/18 15/15/18
f 5/5/19 13/13/19 12/12/19
f 11/11/26 19/19/26 18/18/26
f 16/16/27 17/17/27 18/18/27
f 9/9/28 17/17/28 16/16/28
f 11/11/29 3/3/29 16/16/29
f 9/9/30 10/10/30 18/18/30
