# Blender 3.4.1
# www.blender.org
mtllib caballo_cuerpo.mtl
o cuerpo
v -0.352184 -0.404237 0.469574
v -0.447122 -0.257071 0.265243
v -0.173878 -0.524888 0.550581
v -0.342400 -0.661330 0.455035
v -0.144922 -0.757797 0.468657
v -0.402692 -0.163525 -0.016584
v -0.153814 -0.872369 0.256271
v -0.155903 -0.908107 0.064985
v -0.202892 -0.891004 -0.055281
v -0.155903 -0.908107 0.064985
v -0.362486 -0.668694 -0.082419
v 0.223177 0.119929 0.540413
v 0.132149 -0.230682 0.568387
v 0.312614 -0.079232 0.397700
v 0.263958 0.323207 0.392887
v 0.000000 -0.039332 0.702542
v 0.000000 -0.258989 0.609895
v 0.296060 0.130654 0.183580
v 0.215809 0.161607 -0.086111
v 0.402692 -0.163525 -0.016584
v 0.439065 -0.157365 -0.315267
v 0.000000 0.229968 -0.114566
v -0.111839 0.326343 0.115320
v 0.000000 0.373732 0.102560
v -0.439065 -0.157365 -0.315267
v -0.215809 0.161607 -0.086111
v -0.197719 0.080100 -0.403973
v -0.066929 0.526456 0.297266
v 0.000000 0.397420 -0.038689
v -0.296060 0.130654 0.183580
v 0.000000 0.132586 -0.412953
v 0.000000 0.628613 0.175941
v 0.111839 0.326343 0.115320
v 0.197719 0.080100 -0.403973
v 0.066929 0.526456 0.297266
v 0.000000 -0.581335 0.595903
v -0.132149 -0.230682 0.568387
v 0.447122 -0.257071 0.265243
v 0.352184 -0.404237 0.469574
v 0.173878 -0.524888 0.550581
v -0.407494 -0.476028 -0.092769
v -0.223177 0.119929 0.540413
v -0.312614 -0.079232 0.397700
v -0.263958 0.323207 0.392887
v 0.000000 -0.952194 0.189764
v 0.000000 -0.810841 0.477470
v 0.144922 -0.757797 0.468657
v 0.342400 -0.661330 0.455035
v 0.153814 -0.872369 0.256271
v 0.155903 -0.908107 0.064985
v 0.362486 -0.668694 -0.082419
v 0.155903 -0.908107 0.064985
v 0.202892 -0.891004 -0.055281
v 0.000000 -0.971406 -0.019874
v 0.000000 -0.952194 0.189764
v 0.346145 -0.740835 -0.243034
v 0.199989 -0.912919 -0.190527
v 0.407494 -0.476028 -0.092769
v -0.346145 -0.740835 -0.243034
v -0.199989 -0.912919 -0.190527
v 0.000000 -0.802820 -0.896902
v 0.000000 -0.711393 -1.241645
v 0.084567 -0.692913 -1.209071
v 0.000000 -0.493625 -1.848243
v 0.063780 -0.748533 -1.711715
v 0.000000 -0.684584 -1.678116
v 0.154678 -0.516389 -1.868114
v 0.000000 -0.684584 -1.678116
v 0.063780 -0.748533 -1.711715
v 0.000000 -0.228244 -1.879815
v 0.278684 -0.714305 -0.865488
v 0.306736 -0.568721 -1.074057
v 0.398547 -0.302416 -1.060243
v 0.436963 -0.564479 -0.802648
v 0.375117 -0.111613 -0.916055
v 0.375117 -0.111613 -0.916055
v 0.398547 -0.302416 -1.060243
v 0.397098 0.008044 -1.112565
v 0.268099 -0.220573 -1.844793
v 0.064641 0.023065 -1.823929
v 0.000000 0.099435 -1.790884
v 0.295322 0.033944 -1.630509
v 0.252117 0.182635 -1.383481
v -0.268099 -0.220573 -1.844793
v -0.154678 -0.516389 -1.868114
v -0.064641 0.023065 -1.823929
v -0.295322 0.033944 -1.630509
v -0.252117 0.182635 -1.383481
v 0.000000 0.246755 -1.398920
v 0.000000 -0.024701 -1.846126
v 0.430805 -0.024058 -1.337347
v 0.199997 0.220365 -1.056028
v 0.000000 0.251374 -1.040862
v -0.063780 -0.748533 -1.711715
v -0.084567 -0.692913 -1.209071
v -0.063780 -0.748533 -1.711715
v 0.222904 -0.884343 -0.554680
v 0.424101 -0.689049 -0.544008
v 0.000000 0.162671 -0.754832
v 0.173939 0.110074 -0.781885
v -0.278684 -0.714305 -0.865488
v -0.306736 -0.568721 -1.074057
v -0.222904 -0.884343 -0.554680
v -0.436963 -0.564479 -0.802648
v -0.424101 -0.689049 -0.544008
v -0.398547 -0.302416 -1.060243
v -0.375117 -0.111613 -0.916055
v -0.199997 0.220365 -1.056028
v -0.173939 0.110074 -0.781885
v -0.375117 -0.111613 -0.916055
v -0.397098 0.008044 -1.112565
v -0.398547 -0.302416 -1.060243
v -0.441000 -0.175522 -0.696028
v -0.173939 0.110074 -0.781885
v 0.000000 -0.986777 -0.162109
v 0.000000 0.162671 -0.754832
v 0.000000 -0.960573 -0.547965
v 0.441000 -0.175522 -0.696028
v 0.173939 0.110074 -0.781885
v -0.430805 -0.024058 -1.337347
v 0.414853 -0.232753 -0.005892
v 0.393366 -0.439977 0.420269
v 0.425764 -0.212102 0.129766
v 0.224477 -0.837098 0.369184
v -0.383430 -0.431354 0.432165
v -0.196443 -0.809153 0.404238
v -0.433741 -0.340269 0.010714
v -0.463527 -0.171151 -1.185319
v 0.295149 -0.312837 -1.830983
v 0.450798 -0.136813 -1.171378
v -0.327535 -0.241137 -1.785615
v -0.294062 -0.309131 -1.831537
v -0.369907 -0.113298 -1.642368
v 0.336021 -0.244073 -1.777166
v 0.383208 -0.139555 -1.644483
v -0.252962 -0.852921 0.235004
v -0.255051 -0.888659 0.043718
v 0.265482 -0.860027 0.249253
v 0.267571 -0.895765 0.057967
v -0.302307 -0.668057 -1.244900
v -0.281520 -0.681688 -1.710752
v -0.351764 -0.606964 -1.183725
v -0.464504 -0.256231 -1.221148
v -0.399524 -0.387495 -1.116268
v -0.340235 -0.230851 -1.678197
v -0.401133 -0.141611 -1.373176
v -0.296318 -0.579603 -1.777384
v -0.307182 -0.426378 -1.803699
v -0.328511 -0.326216 -1.773646
v 0.400697 -0.603973 -1.247522
v 0.276534 -0.677503 -1.667509
v 0.361246 -0.506073 -1.151930
v 0.321924 -0.333394 -1.751071
v 0.304164 -0.415282 -1.801943
v 0.436700 -0.232602 -1.204121
v 0.403889 -0.388218 -1.103780
v 0.269952 -0.554819 -1.787702
v 0.369110 -0.235179 -1.631275
v 0.416707 -0.126647 -1.353970
vn -0.6832 0.1324 0.7181
vn -0.9158 -0.1050 0.3875
vn -0.7841 0.0731 0.6163
vn -0.8406 0.1210 0.5280
vn -0.3706 -0.2151 0.9035
vn -0.1812 -0.6109 0.7707
vn 0.8219 -0.0008 0.5696
vn 0.4576 -0.0718 0.8863
vn 0.8459 0.1789 0.5025
vn 0.9135 0.3846 -0.1323
vn 0.8713 0.4780 -0.1112
vn 0.9531 0.3024 0.0108
vn 0.6832 0.1324 0.7181
vn 0.3706 -0.2151 0.9035
vn -0.0000 -0.2477 0.9688
vn -0.0000 -0.2042 0.9789
vn -0.4576 -0.0718 0.8863
vn -0.0000 -0.7575 0.6529
vn -0.2791 -0.9259 -0.2548
vn -0.0000 -0.9730 0.2307
vn -0.5544 -0.8223 0.1283
vn -0.2342 -0.8600 0.4534
vn 0.4949 -0.8522 0.1700
vn 0.2492 -0.5422 0.8024
vn 0.6704 -0.1856 0.7184
vn 0.8051 0.0681 0.5893
vn 0.8765 -0.4712 0.0982
vn 0.8997 -0.3969 0.1815
vn 0.8902 -0.4343 -0.1379
vn 0.5797 -0.8134 0.0481
vn 0.5444 -0.7974 0.2603
vn -0.0000 -0.9959 0.0907
vn 0.3897 -0.8951 0.2167
vn -0.0000 -0.9678 0.2517
vn -0.2016 -0.9683 0.1476
vn -0.2383 -0.9712 -0.0053
vn -0.5797 -0.8134 0.0481
vn -0.8746 -0.4414 -0.2009
vn -0.8765 -0.4712 0.0982
vn -0.9346 -0.3535 0.0403
vn -0.9372 0.3439 -0.0580
vn -0.9579 0.2857 0.0295
vn -0.6409 0.7305 -0.2357
vn -0.4928 0.8542 -0.1661
vn -0.0000 0.9117 -0.4108
vn -0.0000 0.9964 -0.0842
vn 0.4927 0.8542 -0.1661
vn 0.6409 0.7305 -0.2357
vn 0.9579 0.2857 0.0295
vn 0.9672 0.2412 -0.0799
vn 0.5302 0.7142 -0.4569
vn -0.0000 0.6843 -0.7292
vn -0.5302 0.7142 -0.4569
vn -0.8712 0.4782 -0.1112
vn -0.8054 0.5867 -0.0841
vn -0.9135 0.3846 -0.1323
vn -0.8459 0.1789 0.5025
vn -0.8219 -0.0008 0.5696
vn -0.0000 0.9636 -0.2675
vn -0.0000 -0.2071 -0.9783
vn 0.6750 0.7269 -0.1265
vn 0.0232 -0.2840 0.9585
vn 0.9062 0.1903 -0.3776
vn 0.9640 -0.1454 -0.2227
vn -0.0000 -0.9079 -0.4192
vn -0.0000 -0.9754 -0.2204
vn 0.4745 -0.7294 -0.4929
vn 0.6235 -0.7244 -0.2943
vn 0.5109 -0.8395 -0.1851
vn 0.9219 -0.3832 -0.0567
vn 0.9302 -0.3046 -0.2049
vn 0.2376 -0.9447 0.2262
vn -0.0000 -0.9767 -0.2148
vn -0.6682 -0.6546 -0.3535
vn -0.2449 -0.8743 0.4190
vn 0.6797 -0.6483 -0.3431
vn -0.6235 -0.7244 -0.2943
vn -0.5109 -0.8395 -0.1851
vn -0.9219 -0.3832 -0.0567
vn -0.9302 -0.3046 -0.2049
vn -0.3536 -0.8772 0.3246
vn -0.9457 -0.0556 0.3202
vn -0.9299 0.3539 0.1001
vn -0.9390 0.3353 -0.0760
vn -0.0000 -1.0000 -0.0001
vn -0.0000 -0.9512 -0.3086
vn 0.9390 0.3353 -0.0760
vn 0.9299 0.3539 0.1001
vn 0.5511 0.8285 0.0990
vn -0.0000 0.9594 0.2822
vn -0.5511 0.8285 0.0990
vn -0.0000 -0.4410 -0.8975
vn -0.4092 -0.9030 -0.1307
vn -0.0000 -0.9773 -0.2118
vn 0.0631 -0.2986 -0.9523
vn -0.0000 0.0298 -0.9996
vn 0.3669 0.2032 -0.9078
vn -0.0328 0.2373 -0.9709
vn 0.6079 0.6044 -0.5149
vn -0.1170 0.7343 -0.6687
vn 0.5548 0.8137 -0.1736
vn -0.0000 0.9788 -0.2049
vn -0.5548 0.8137 -0.1736
vn -0.4716 0.8469 0.2456
vn -0.0000 0.9889 0.1484
vn 0.4716 0.8469 0.2456
vn 0.9025 0.3724 0.2165
vn 0.9306 0.3331 -0.1520
vn 0.9303 0.3559 0.0883
vn 1.0000 -0.0006 0.0066
vn 0.5507 0.8197 0.1574
vn -0.0000 0.9697 0.2441
vn -0.5507 0.8197 0.1574
vn -0.9303 0.3559 0.0883
vn -0.9025 0.3724 0.2165
vn -0.9953 -0.0254 0.0935
vn -0.6949 0.5743 -0.4328
vn -0.9288 0.3516 -0.1175
vn 0.0328 0.2373 -0.9709
vn -0.3669 0.2032 -0.9078
vn 0.5880 0.5822 -0.5616
vn -0.0863 -0.1473 -0.9853
vn 0.9457 -0.0556 0.3202
vn 0.4092 -0.9030 -0.1307
vn 0.9223 0.1989 -0.3314
vn 0.6559 -0.2550 0.7105
vn -0.0400 -0.9982 0.0456
vn -0.9519 0.2484 -0.1792
vn -0.9866 0.1289 0.0995
vn 0.8522 0.0472 -0.5211
vn 0.7221 -0.0071 -0.6917
vn -0.9119 0.1628 -0.3766
vn -0.6874 -0.0673 -0.7231
vn 0.9936 0.0116 0.1125
vn -0.8668 0.1883 -0.4617
vn -0.7868 -0.4672 -0.4033
vn 0.2178 -0.9750 -0.0437
vn 0.8071 -0.2490 -0.5353
vn 0.8194 -0.1849 -0.5426
vn -0.9785 -0.0059 -0.2061
vn -0.7104 -0.6310 0.3118
vn -0.0016 0.9996 0.0264
vn 0.4110 0.7424 0.5291
vn 0.5463 0.8135 0.1996
vn 0.9616 0.2489 -0.1158
vn 0.9140 0.0658 -0.4005
vn 0.8369 -0.4204 -0.3505
vn -0.9954 -0.0613 0.0742
vn -0.7436 -0.1103 -0.6595
vn -0.2270 -0.8132 -0.5359
vn -0.9620 -0.1100 -0.2498
vn -0.2879 -0.6475 0.7056
vn -0.2595 -0.5540 -0.7911
vn -0.9764 -0.1193 -0.1799
vn -0.8318 -0.3203 0.4532
vn -0.9678 -0.2505 0.0234
vn 0.9627 -0.1928 -0.1901
vn 0.9728 -0.1180 -0.1993
vn 0.4141 -0.6489 0.6383
vn 0.3558 -0.6442 -0.6771
vn 0.9713 -0.1848 -0.1495
vn 0.9579 -0.2774 -0.0743
vn 0.7959 -0.6031 0.0540
vn 0.7159 -0.2800 0.6396
vn 0.9246 -0.3130 -0.2170
vn 0.1892 -0.7910 -0.5818
vn -0.2713 -0.8661 -0.4199
vn -0.9911 -0.0504 -0.1231
vn -0.1871 -0.5982 -0.7792
vn -0.8204 -0.3078 0.4818
vn 0.3054 -0.6114 -0.7300
vn 0.8663 -0.4224 0.2666
vt 0.417960 0.312505
vt 0.464836 0.351568
vt 0.390631 0.289067
vt 0.417960 0.226566
vt 0.386710 0.195315
vt 0.523446 0.382818
vt 0.386710 0.125002
vt 0.382818 0.023438
vt 0.539071 0.101564
vt 0.519524 0.085939
vt 0.539071 0.179690
vt 0.390631 0.523446
vt 0.378897 0.382818
vt 0.429694 0.437507
vt 0.433585 0.609384
vt 0.335943 0.453132
vt 0.351568 0.375006
vt 0.484383 0.515633
vt 0.550775 0.523446
vt 0.523446 0.382818
vt 0.582025 0.367193
vt 0.578134 0.593759
vt 0.519524 0.632822
vt 0.535149 0.687511
vt 0.582025 0.367193
vt 0.550775 0.523446
vt 0.609384 0.484383
vt 0.468757 0.742199
vt 0.566400 0.718761
vt 0.484383 0.515633
vt 0.621088 0.554696
vt 0.527337 0.804700
vt 0.519524 0.632822
vt 0.609384 0.484383
vt 0.468757 0.742199
vt 0.355459 0.281254
vt 0.378897 0.382818
vt 0.464836 0.351568
vt 0.417960 0.312505
vt 0.390631 0.289067
vt 0.535149 0.257816
vt 0.390631 0.523446
vt 0.429694 0.437507
vt 0.433585 0.609384
vt 0.363272 0.085939
vt 0.355459 0.187503
vt 0.386710 0.195315
vt 0.417960 0.226566
vt 0.386710 0.125002
vt 0.382818 0.023438
vt 0.539071 0.179690
vt 0.519524 0.085939
vt 0.539071 0.101564
vt 0.527337 0.007813
vt 0.500008 0.007813
vt 0.562509 0.156252
vt 0.554696 0.085939
vt 0.535149 0.257816
vt 0.562509 0.156252
vt 0.554696 0.085939
vt 0.675776 0.007813
vt 0.726574 0.007813
vt 0.726574 0.054688
vt 0.996094 0.617197
vt 0.972656 0.515633
vt 0.996094 0.515633
vt 0.960952 0.609384
vt 0.000000 0.000000
vt 0.738277 0.007813
vt 0.000000 0.000000
vt 0.738277 0.054688
vt 0.996094 0.726574
vt 0.671885 0.109377
vt 0.714840 0.140627
vt 0.000000 0.000000
vt 0.730465 0.273442
vt 0.671885 0.187503
vt 0.707027 0.359381
vt 0.746090 0.789075
vt 0.000000 0.000000
vt 0.769528 0.679698
vt 0.789075 0.796887
vt 0.945327 0.726574
vt 0.976578 0.867201
vt 0.980469 0.914077
vt 0.906264 0.820325
vt 0.859388 0.882826
vt 0.945327 0.726574
vt 0.000000 0.000000
vt 0.960952 0.609384
vt 0.976578 0.867201
vt 0.906264 0.820325
vt 0.859388 0.882826
vt 0.882826 0.992203
vt 0.996094 0.843763
vt 0.835950 0.781262
vt 0.789075 0.914077
vt 0.789075 0.992203
vt 0.972656 0.515633
vt 0.726574 0.054688
vt 0.738277 0.054688
vt 0.000000 0.000000
vt 0.613276 0.085939
vt 0.613276 0.164065
vt 0.730465 0.992203
vt 0.730465 0.914077
vt 0.671885 0.109377
vt 0.000000 0.000000
vt 0.714840 0.140627
vt 0.613276 0.085939
vt 0.671885 0.187503
vt 0.613276 0.164065
vt 0.730465 0.273442
vt 0.707027 0.359381
vt 0.789075 0.914077
vt 0.730465 0.914077
vt 0.746090 0.789075
vt 0.789075 0.796887
vt 0.000000 0.000000
vt 0.769528 0.679698
vt 0.664073 0.343755
vt 0.695323 0.484383
vt 0.550775 0.007813
vt 0.695323 0.554696
vt 0.617197 0.007813
vt 0.664073 0.343755
vt 0.695323 0.484383
vt 0.835950 0.781262
vt 0.519923 0.357475
vt 0.428914 0.296074
vt 0.493010 0.366590
vt 0.408312 0.146709
vt 0.426271 0.300038
vt 0.400700 0.163838
vt 0.514452 0.318115
vt 0.804593 0.727054
vt 0.939786 0.687785
vt 0.801619 0.740436
vt 0.929381 0.716764
vt 0.940008 0.689343
vt 0.900865 0.762812
vt 0.927104 0.715363
vt 0.899902 0.752556
vt 0.386710 0.125002
vt 0.382818 0.023438
vt 0.000000 0.000000
vt 0.480561 0.093012
vt 0.469709 0.167421
vt 0.387549 0.074409
vt 0.386710 0.125002
vt 0.528617 0.043405
vt 0.382818 0.023438
vt 0.804084 0.401932
vt 0.726574 0.054688
vt 0.738277 0.054688
vt 0.815787 0.401932
vt 0.000000 0.000000
vt 0.000000 0.000000
vt 0.792350 0.487871
vt 0.714840 0.140627
vt 0.804593 0.727054
vt 0.769528 0.679698
vt 0.000000 0.000000
vt 0.900865 0.762812
vt 0.835950 0.781262
vt 0.000000 0.000000
vt 0.960952 0.609384
vt 0.940008 0.689343
vt 0.929381 0.716764
vt 0.802534 0.420534
vt 0.726574 0.054688
vt 0.000000 0.000000
vt 0.814237 0.420534
vt 0.738277 0.054688
vt 0.714840 0.140627
vt 0.790800 0.506473
vt 0.000000 0.000000
vt 0.927104 0.715363
vt 0.939786 0.687785
vt 0.801619 0.740436
vt 0.000000 0.000000
vt 0.769528 0.679698
vt 0.960952 0.609384
vt 0.000000 0.000000
vt 0.899902 0.752556
vt 0.835950 0.781262
s 1
usemtl normalhorse_mat
f 1/1/1 2/2/2 125/133/3
f 1/1/1 125/133/3 4/4/4
f 4/4/4 3/3/5 1/1/1
f 3/3/5 4/4/4 5/5/6
f 12/12/7 13/13/8 14/14/9
f 14/14/9 15/15/10 12/12/7
f 18/18/11 15/15/10 14/14/9
f 38/38/12 18/18/11 14/14/9
f 14/14/9 39/39/13 38/38/12
f 39/39/13 14/14/9 13/13/8
f 40/40/14 39/39/13 13/13/8
f 36/36/15 40/40/14 13/13/8
f 36/36/15 13/13/8 17/17/16
f 36/36/15 17/17/16 37/37/17
f 36/36/15 37/37/17 3/3/5
f 36/36/15 3/3/5 5/5/6
f 5/5/6 46/46/18 36/36/15
f 5/5/6 7/7/19 46/46/18
f 7/7/19 45/45/20 46/46/18
f 45/45/20 7/7/19 8/8/21
f 49/49/22 46/46/18 45/45/20
f 45/45/20 50/50/23 49/49/22
f 47/47/24 46/46/18 49/49/22
f 47/47/24 36/36/15 46/46/18
f 36/36/15 47/47/24 40/40/14
f 40/40/14 47/47/24 48/48/25
f 48/48/25 39/39/13 40/40/14
f 39/39/13 48/48/25 122/130/26
f 39/39/13 122/130/26 38/38/12
f 56/56/27 58/58/28 51/51/29
f 56/56/27 51/51/29 57/57/30
f 57/57/30 51/51/29 53/53/31
f 57/57/30 53/53/31 54/54/32
f 54/54/32 53/53/31 52/52/33
f 54/54/32 52/52/33 55/55/34
f 10/10/35 54/54/32 55/55/34
f 9/9/36 54/54/32 10/10/35
f 60/60/37 54/54/32 9/9/36
f 11/11/38 60/60/37 9/9/36
f 59/59/39 60/60/37 11/11/38
f 59/59/39 11/11/38 41/41/40
f 41/41/40 6/6/41 25/25/42
f 26/26/43 25/25/42 6/6/41
f 25/25/42 26/26/43 27/27/44
f 27/27/44 26/26/43 22/22/45
f 27/27/44 22/22/45 31/31/46
f 34/34/47 31/31/46 22/22/45
f 34/34/47 22/22/45 19/19/48
f 21/21/49 34/34/47 19/19/48
f 19/19/48 20/20/50 21/21/49
f 19/19/48 18/18/11 20/20/50
f 33/33/51 18/18/11 19/19/48
f 22/22/45 33/33/51 19/19/48
f 22/22/45 24/24/52 33/33/51
f 22/22/45 23/23/53 24/24/52
f 22/22/45 26/26/43 23/23/53
f 23/23/53 26/26/43 30/30/54
f 30/30/54 28/28/55 23/23/53
f 30/30/54 44/44/56 28/28/55
f 30/30/54 43/43/57 44/44/56
f 2/2/2 43/43/57 30/30/54
f 43/43/57 2/2/2 1/1/1
f 1/1/1 37/37/17 43/43/57
f 3/3/5 37/37/17 1/1/1
f 42/42/58 43/43/57 37/37/17
f 43/43/57 42/42/58 44/44/56
f 28/28/55 32/32/59 29/29/60
f 28/28/55 29/29/60 24/24/52
f 24/24/52 23/23/53 28/28/55
f 35/35/61 24/24/52 29/29/60
f 35/35/61 29/29/60 32/32/59
f 16/16/62 42/42/58 37/37/17
f 16/16/62 37/37/17 17/17/16
f 16/16/62 17/17/16 13/13/8
f 16/16/62 13/13/8 12/12/7
f 18/18/11 123/131/63 20/20/50
f 58/58/28 20/20/50 121/129/64
f 58/58/28 21/21/49 20/20/50
f 26/26/43 6/6/41 30/30/54
f 6/6/41 2/2/2 30/30/54
f 18/18/11 33/33/51 35/35/61
f 18/18/11 35/35/61 15/15/10
f 24/24/52 35/35/61 33/33/51
f 61/61/65 62/62/66 63/63/67
f 61/61/65 63/63/67 71/73/68
f 97/103/69 61/61/65 71/73/68
f 71/73/68 98/104/70 97/103/69
f 74/77/71 98/104/70 71/73/68
f 72/74/72 74/77/71 71/73/68
f 71/73/68 63/63/67 72/74/72
f 63/63/67 68/69/73 69/71/74
f 68/69/73 63/63/67 62/62/66
f 68/69/73 62/62/66 95/100/75
f 95/100/75 96/101/76 68/69/73
f 61/61/65 95/100/75 62/62/66
f 61/61/65 101/107/77 95/100/75
f 103/110/78 101/107/77 61/61/65
f 101/107/77 103/110/78 105/112/79
f 104/111/80 101/107/77 105/112/79
f 102/109/81 101/107/77 104/111/80
f 101/107/77 102/109/81 95/100/75
f 106/113/82 102/109/81 104/111/80
f 107/114/83 106/113/82 104/111/80
f 113/121/84 107/114/83 104/111/80
f 113/121/84 104/111/80 105/112/79
f 105/112/79 25/25/42 113/121/84
f 105/112/79 59/59/39 25/25/42
f 103/110/78 59/59/39 105/112/79
f 103/110/78 60/60/37 59/59/39
f 103/110/78 115/123/85 60/60/37
f 103/110/78 117/125/86 115/123/85
f 103/110/78 61/61/65 117/125/86
f 97/103/69 117/125/86 61/61/65
f 97/103/69 115/123/85 117/125/86
f 97/103/69 57/57/30 115/123/85
f 97/103/69 56/56/27 57/57/30
f 97/103/69 98/104/70 56/56/27
f 98/104/70 21/21/49 56/56/27
f 98/104/70 118/126/87 21/21/49
f 118/126/87 98/104/70 74/77/71
f 118/126/87 74/77/71 75/78/88
f 75/78/88 119/127/89 118/126/87
f 118/126/87 119/127/89 34/34/47
f 118/126/87 34/34/47 21/21/49
f 31/31/46 34/34/47 119/127/89
f 31/31/46 119/127/89 116/124/90
f 31/31/46 116/124/90 114/122/91
f 31/31/46 114/122/91 27/27/44
f 113/121/84 27/27/44 114/122/91
f 113/121/84 25/25/42 27/27/44
f 107/114/83 113/121/84 114/122/91
f 64/64/92 65/65/93 66/66/94
f 64/64/92 67/67/95 65/65/93
f 67/67/95 64/64/92 70/72/96
f 79/83/97 67/67/95 70/72/96
f 80/84/98 82/86/99 79/83/97
f 80/84/98 81/85/100 82/86/99
f 82/86/99 81/85/100 83/87/101
f 89/94/102 83/87/101 81/85/100
f 89/94/102 81/85/100 88/93/103
f 89/94/102 88/93/103 108/115/104
f 89/94/102 108/115/104 93/98/105
f 89/94/102 93/98/105 92/97/106
f 89/94/102 92/97/106 83/87/101
f 78/82/107 83/87/101 92/97/106
f 83/87/101 78/82/107 91/96/108
f 76/79/109 77/81/110 78/82/107
f 76/79/109 78/82/107 92/97/106
f 76/79/109 92/97/106 100/106/111
f 92/97/106 99/105/112 100/106/111
f 92/97/106 93/98/105 99/105/112
f 108/115/104 99/105/112 93/98/105
f 108/115/104 109/116/113 99/105/112
f 110/117/114 109/116/113 108/115/104
f 110/117/114 108/115/104 111/118/115
f 110/117/114 111/118/115 112/120/116
f 88/93/103 87/92/117 120/128/118
f 87/92/117 88/93/103 81/85/100
f 86/91/119 87/92/117 81/85/100
f 86/91/119 84/88/120 87/92/117
f 86/91/119 90/95/121 84/88/120
f 70/72/96 84/88/120 90/95/121
f 84/88/120 70/72/96 85/90/122
f 73/76/123 74/77/71 72/74/72
f 75/78/88 74/77/71 73/76/123
f 70/72/96 90/95/121 79/83/97
f 80/84/98 79/83/97 90/95/121
f 64/64/92 66/66/94 94/99/124
f 64/64/92 94/99/124 85/90/122
f 85/90/122 70/72/96 64/64/92
f 59/59/39 41/41/40 25/25/42
f 56/56/27 21/21/49 58/58/28
f 60/60/37 115/123/85 54/54/32
f 57/57/30 54/54/32 115/123/85
f 88/93/103 120/128/118 111/118/115
f 111/118/115 108/115/104 88/93/103
f 91/96/108 135/143/125 82/86/99
f 83/87/101 91/96/108 82/86/99
f 124/132/126 48/48/25 47/47/24
f 123/131/63 121/129/64 20/20/50
f 124/132/126 47/47/24 49/49/22
f 126/134/127 7/7/19 5/5/6
f 127/135/128 6/6/41 41/41/40
f 127/135/128 2/2/2 6/6/41
f 4/4/4 126/134/127 5/5/6
f 128/136/129 112/120/116 111/118/115
f 134/142/130 129/137/131 79/83/97
f 133/141/132 120/128/118 87/92/117
f 128/136/129 111/118/115 120/128/118
f 85/90/122 132/140/133 84/88/120
f 130/138/134 78/82/107 77/81/110
f 133/141/132 84/88/120 131/139/135
f 129/137/131 67/67/95 79/83/97
f 135/143/125 79/83/97 82/86/99
f 132/140/133 131/139/135 84/88/120
f 130/138/134 91/96/108 78/82/107
f 86/91/119 80/84/98 90/95/121
f 126/134/127 4/4/4 136/144/136
f 50/50/23 138/150/137 49/49/22
f 67/67/95 154/179/138 157/183/139
f 133/141/132 146/165/140 120/128/118
f 8/8/21 136/144/136 137/145/141
f 7/7/19 126/134/127 136/144/136
f 10/10/142 9/9/143 137/146/144
f 11/11/145 137/147/144 9/9/143
f 41/41/146 137/148/144 11/11/145
f 137/149/141 136/144/136 41/41/40
f 4/4/4 125/133/3 136/144/136
f 136/144/136 2/2/2 127/135/128
f 52/52/33 53/53/31 139/151/147
f 49/49/22 138/150/137 124/132/126
f 138/150/137 51/51/29 121/129/64
f 143/161/148 148/168/149 141/156/150
f 132/140/133 149/169/151 131/139/135
f 96/101/76 140/154/152 141/155/150
s 0
f 85/89/153 141/157/153 147/166/153
s 1
f 131/139/135 145/164/154 133/141/132
f 128/136/129 146/165/140 143/161/148
s 0
f 102/108/155 144/163/155 142/158/155
s 1
f 112/120/116 143/161/148 144/162/156
f 102/109/81 140/154/152 95/100/75
f 85/90/122 148/168/149 132/140/133
f 153/178/157 156/182/158 150/170/159
s 0
f 69/70/160 157/184/160 151/172/160
s 1
f 135/143/125 159/186/161 158/185/162
f 72/74/72 150/171/159 152/175/163
f 129/137/131 153/178/157 154/179/138
f 134/142/130 158/185/162 153/178/157
s 0
f 72/75/164 156/181/164 77/80/164
s 1
f 77/81/110 155/180/165 130/138/134
f 63/63/67 151/174/166 150/171/159
f 130/138/134 159/186/161 91/96/108
f 32/32/59 28/28/55 35/35/61
f 18/18/11 38/38/12 123/131/63
f 133/141/132 87/92/117 84/88/120
f 135/143/125 134/142/130 79/83/97
f 86/91/119 81/85/100 80/84/98
f 50/50/23 139/152/147 138/150/137
f 67/67/95 129/137/131 154/179/138
f 133/141/132 145/164/154 146/165/140
f 8/8/21 7/7/19 136/144/136
f 127/135/128 41/41/40 136/144/136
f 136/144/136 125/133/3 2/2/2
f 123/131/63 38/38/12 122/130/26
f 122/130/26 48/48/25 124/132/126
f 138/150/137 139/152/147 53/53/31
f 122/130/26 124/132/126 138/150/137
f 121/129/64 123/131/63 122/130/26
f 51/51/29 58/58/28 121/129/64
f 138/150/137 53/53/31 51/51/29
f 121/129/64 122/130/26 138/150/137
f 141/156/150 140/153/152 142/159/167
f 142/159/167 144/162/156 143/161/148
f 143/161/148 146/165/140 145/164/154
f 145/164/154 149/169/151 148/168/149
f 148/168/149 147/167/168 141/156/150
f 141/156/150 142/159/167 143/161/148
f 143/161/148 145/164/154 148/168/149
f 132/140/133 148/168/149 149/169/151
f 96/101/76 95/100/75 140/154/152
s 0
f 85/89/169 96/102/169 141/157/169
s 1
f 131/139/135 149/169/151 145/164/154
f 128/136/129 120/128/118 146/165/140
s 0
f 102/108/170 112/119/170 144/163/170
s 1
f 112/120/116 128/136/129 143/161/148
f 102/109/81 142/160/167 140/154/152
f 85/90/122 147/167/168 148/168/149
f 150/170/159 151/173/166 157/183/139
f 157/183/139 154/179/138 153/178/157
f 153/178/157 158/185/162 159/186/161
f 159/186/161 155/180/165 156/182/158
f 156/182/158 152/176/163 150/170/159
f 150/170/159 157/183/139 153/178/157
f 153/178/157 159/186/161 156/182/158
s 0
f 69/70/171 67/68/171 157/184/171
s 1
f 135/143/125 91/96/108 159/186/161
f 72/74/72 63/63/67 150/171/159
f 129/137/131 134/142/130 153/178/157
f 134/142/130 135/143/125 158/185/162
s 0
f 72/75/172 152/177/172 156/181/172
s 1
f 77/81/110 156/182/158 155/180/165
f 63/63/67 69/71/74 151/174/166
f 130/138/134 155/180/165 159/186/161
