# Blender 3.4.1
# www.blender.org
mtllib caballo_pataDelizqAba.mtl
o pataDIA
v 0.061625 0.039460 -0.099160
v -0.068621 0.039575 -0.099513
v 0.039199 -0.109788 -0.123814
v 0.083525 -0.058124 0.081208
v -0.068621 0.039575 -0.099513
v -0.099589 -0.040980 0.084638
v -0.033270 -0.109786 -0.123816
v 0.061713 -0.146485 0.057522
v -0.079059 -0.134986 0.058308
v -0.033270 -0.109786 -0.123816
v -0.112741 -0.543508 0.119198
v 0.104962 -0.552280 0.105472
v 0.069058 -0.636804 -0.159305
v -0.089566 -0.636804 -0.159305
v -0.089566 -0.636804 -0.159305
v -0.090593 -0.736142 -0.086289
v 0.075194 -0.736142 -0.086290
v 0.088442 -0.817306 -0.070231
v -0.157451 -0.817306 0.107717
v -0.007345 -0.817306 0.274398
v -0.112448 -0.817306 0.229665
v 0.135804 -0.817306 0.107717
v -0.157451 -0.817306 0.107717
v -0.100363 -0.671933 0.181966
v -0.090593 -0.736142 -0.086289
v -0.007345 -0.817306 0.274398
v 0.083196 -0.675909 0.181966
v -0.100363 -0.671933 0.181966
v -0.112448 -0.817306 0.229665
v -0.102179 -0.817306 -0.070231
v -0.102179 -0.817306 -0.070231
v 0.097532 -0.817306 0.229665
v 0.075194 -0.736142 -0.086290
v 0.049573 -0.617837 0.106520
v -0.065556 -0.615495 0.106520
v -0.090593 -0.736142 -0.086289
v -0.090593 -0.736142 -0.086289
v 0.083196 -0.675909 0.181966
v -0.100363 -0.671933 0.181966
v -0.112448 -0.817306 0.229665
v 0.135804 -0.817306 0.107717
v 0.097532 -0.817306 0.229665
v 0.088442 -0.817306 -0.070231
v -0.102179 -0.817306 -0.070231
v 0.068398 0.019849 0.045291
v -0.061848 0.019964 0.044938
vn 0.8956 0.1630 -0.4139
vn 0.5612 -0.0642 -0.8252
vn -0.9099 0.2310 -0.3446
vn 0.9653 -0.2148 0.1486
vn 0.7708 -0.0239 0.6366
vn 0.8084 -0.0890 -0.5818
vn 0.7847 -0.1704 0.5960
vn -0.6245 -0.0784 0.7771
vn -0.9104 -0.0172 0.4134
vn -0.6779 -0.0544 -0.7332
vn -0.7168 -0.0865 -0.6919
vn -0.9869 -0.1587 0.0295
vn -0.4634 0.6724 -0.5771
vn -0.7159 -0.0864 -0.6929
vn -0.6706 -0.0567 -0.7397
vn -0.8250 -0.1264 -0.5509
vn 0.9082 -0.1097 -0.4039
vn 0.6749 0.1989 0.7106
vn 0.6661 0.5463 0.5078
vn -0.6202 0.1431 0.7713
vn -0.8268 -0.1255 -0.5483
vn -0.6430 0.5773 0.5033
vn -0.8248 -0.1259 -0.5512
vn 0.9087 -0.1010 -0.4051
vn 0.2830 -0.6866 -0.6697
vn -0.3639 -0.7984 -0.4797
vn 0.9051 -0.4240 -0.0314
vn 0.6620 0.5670 0.4901
vn 0.7247 -0.2607 0.6379
vn -0.0000 -0.8245 0.5658
vn -0.6458 0.5642 0.5145
vn -0.7007 -0.2676 0.6614
vn -0.9085 -0.4173 -0.0237
vn -0.0000 -0.8268 0.5625
vn -0.7007 -0.2677 0.6614
vn -0.3650 -0.7953 -0.4841
vn 0.2841 -0.6850 -0.6708
vn 0.9046 -0.4252 -0.0314
vn 0.7248 -0.2598 0.6381
vn -0.9067 -0.4211 -0.0238
vn -0.6561 0.5617 0.5040
vn -0.8268 -0.1237 -0.5487
vn -0.7008 -0.2675 0.6613
vn -0.3621 -0.7982 -0.4815
vn -0.3134 0.7570 -0.5733
vn 0.5336 0.6340 0.5597
vt 0.144518 0.289067
vt 0.183581 0.289067
vt 0.144518 0.257816
vt 0.097643 0.273442
vt 0.011704 0.289067
vt 0.058579 0.273442
vt 0.011704 0.257816
vt 0.097643 0.242191
vt 0.058579 0.242191
vt 0.183581 0.257816
vt 0.054688 0.085939
vt 0.101564 0.085939
vt 0.152331 0.085939
vt 0.191394 0.085939
vt 0.003891 0.085939
vt 0.972656 0.007813
vt 0.972656 0.085939
vt 0.996094 0.085939
vt 0.671885 0.656260
vt 0.710948 0.742199
vt 0.679698 0.718761
vt 0.996094 0.171878
vt 0.996094 0.171878
vt 0.953140 0.218753
vt 0.972656 0.085939
vt 0.996094 0.281254
vt 0.953140 0.218753
vt 0.953140 0.335943
vt 0.996094 0.218753
vt 0.996094 0.085939
vt 0.996094 0.007813
vt 0.996094 0.218753
vt 0.152331 0.007813
vt 0.093751 0.039063
vt 0.062501 0.039063
vt 0.003891 0.007813
vt 0.191394 0.007813
vt 0.097643 0.007813
vt 0.058579 0.007813
vt 0.996094 0.335943
vt 0.750012 0.656260
vt 0.742199 0.718761
vt 0.738277 0.570321
vt 0.683589 0.570321
vt 0.144518 0.289067
vt 0.183581 0.289067
s 1
usemtl normalhorse_mat
f 1/1/1 3/3/2 2/2/3
f 3/3/2 1/1/1 4/4/4
f 3/3/2 4/4/4 8/8/5
f 8/8/5 13/13/6 3/3/2
f 8/8/5 12/12/7 13/13/6
f 8/8/5 11/11/8 12/12/7
f 11/11/8 8/8/5 9/9/9
f 9/9/9 15/15/10 11/11/8
f 7/7/11 15/15/10 9/9/9
f 6/6/12 7/7/11 9/9/9
f 6/6/12 5/5/13 7/7/11
f 4/4/4 6/6/12 8/8/5
f 6/6/12 9/9/9 8/8/5
f 10/10/14 2/2/3 3/3/2
f 3/3/2 14/14/15 10/10/14
f 3/3/2 13/13/6 14/14/15
f 14/14/15 13/13/6 37/37/16
f 13/13/6 33/33/17 37/37/16
f 13/13/6 12/12/7 33/33/17
f 33/33/17 12/12/7 34/34/18
f 33/33/17 34/34/18 38/38/19
f 34/34/18 35/35/20 38/38/19
f 11/11/8 35/35/20 34/34/18
f 12/12/7 11/11/8 34/34/18
f 11/11/8 36/36/21 35/35/20
f 11/11/8 15/15/10 36/36/21
f 35/35/20 36/36/21 39/39/22
f 35/35/20 39/39/22 38/38/19
f 16/16/23 17/17/24 18/18/25
f 18/18/25 31/31/26 16/16/23
f 22/22/27 18/18/25 17/17/24
f 27/27/28 22/22/27 17/17/24
f 32/32/29 22/22/27 27/27/28
f 26/26/30 32/32/29 27/27/28
f 26/26/30 27/27/28 28/28/31
f 28/28/31 40/40/32 26/26/30
f 19/19/33 20/20/34 21/21/35
f 44/44/36 20/20/34 19/19/33
f 43/43/37 20/20/34 44/44/36
f 43/43/37 41/41/38 20/20/34
f 20/20/34 41/41/38 42/42/39
f 23/23/40 24/24/41 25/25/42
f 24/24/41 23/23/40 29/29/43
f 25/25/42 30/30/44 23/23/40
f 4/4/4 46/46/45 6/6/12
f 1/1/1 46/46/45 45/45/46
f 6/6/12 46/46/45 5/5/13
f 1/1/1 45/45/46 4/4/4
f 4/4/4 45/45/46 46/46/45
f 1/1/1 2/2/3 46/46/45
