# Blender 3.4.1
# www.blender.org
mtllib caballo_pataTraIzqAba.mtl
o pataTIA
v -0.052368 -0.073200 -0.075278
v -0.067426 -0.046473 0.112768
v -0.085961 0.073477 -0.130001
v 0.082648 -0.070793 0.112768
v 0.103643 0.072781 -0.129108
v -0.052368 -0.073200 -0.075278
v -0.085961 0.073477 -0.130001
v 0.053923 -0.073200 -0.075278
v -0.068971 -0.671393 -0.134912
v -0.093263 -0.559622 0.152062
v 0.132902 -0.573745 0.152062
v 0.104931 -0.671393 -0.134912
v -0.068971 -0.671393 -0.134912
v 0.020825 -0.869277 0.333006
v 0.109761 -0.711098 0.232904
v -0.070590 -0.707121 0.232904
v -0.070590 -0.707121 0.232904
v -0.127819 -0.869277 0.161821
v -0.080139 -0.869277 0.292865
v -0.074847 -0.782536 -0.032792
v -0.073649 -0.869277 -0.019229
v 0.166099 -0.869277 0.161821
v 0.111628 -0.782536 -0.032792
v -0.127819 -0.869277 0.161821
v 0.020825 -0.869277 0.333006
v -0.080139 -0.869277 0.292865
v 0.115248 -0.869277 -0.019229
v -0.073649 -0.869277 -0.019229
v -0.074847 -0.782536 -0.032792
v 0.121308 -0.869277 0.292865
v 0.111628 -0.782536 -0.032792
v 0.074909 -0.646423 0.137411
v -0.039243 -0.638731 0.137411
v -0.074847 -0.782536 -0.032792
v -0.074847 -0.782536 -0.032792
v 0.109761 -0.711098 0.232904
v -0.070590 -0.707121 0.232904
v -0.080139 -0.869277 0.292865
v 0.166099 -0.869277 0.161821
v 0.121308 -0.869277 0.292865
v -0.073649 -0.869277 -0.019229
v 0.115248 -0.869277 -0.019229
v -0.046135 0.029787 0.079674
v 0.070824 0.007981 0.088558
v 0.087186 0.090217 -0.031367
v -0.060580 0.090669 -0.031870
vn -0.6142 -0.1234 0.7794
vn 0.6368 0.2255 0.7374
vn -0.6292 0.0481 0.7757
vn -0.8274 -0.1395 -0.5441
vn -0.4332 -0.1572 -0.8875
vn -0.8656 0.3790 -0.3274
vn 0.4253 0.4652 -0.7764
vn -0.4284 -0.1572 -0.8898
vn -0.8013 0.4410 -0.4042
vn 0.6433 -0.1274 -0.7550
vn 0.6950 -0.0678 -0.7158
vn 0.7259 -0.1532 0.6706
vn 0.6031 0.1879 0.7752
vn 0.9242 -0.1452 -0.3532
vn -0.8460 -0.1725 -0.5046
vn -0.8223 -0.1420 -0.5511
vn -0.0000 -0.8245 0.5659
vn 0.6632 0.5650 0.4909
vn -0.6593 0.5450 0.5181
vn 0.7018 -0.2632 0.6620
vn 0.8897 -0.4564 -0.0157
vn 0.9237 -0.1506 -0.3523
vn 0.2829 -0.6868 -0.6696
vn -0.8462 -0.1736 -0.5039
vn -0.3545 -0.8115 -0.4645
vn -0.6517 0.5472 0.5252
vn -0.8817 -0.4716 -0.0157
vn -0.7090 -0.2499 0.6595
vn -0.8420 -0.1781 -0.5093
vn -0.3543 -0.8115 -0.4647
vn -0.8812 -0.4724 -0.0158
vn -0.0000 -0.8268 0.5625
vn -0.7075 -0.2520 0.6603
vn -0.3548 -0.8110 -0.4651
vn 0.2841 -0.6850 -0.6708
vn 0.8895 -0.4567 -0.0157
vn 0.7022 -0.2598 0.6629
vn -0.5642 0.0908 0.8206
vn -0.8425 -0.1749 -0.5095
vn -0.6612 0.5357 0.5252
vn 0.6659 0.5465 0.5078
vn -0.7071 -0.2502 0.6614
vn -0.6793 0.6562 0.3286
vn 0.4584 0.8824 0.1064
vn 0.1198 0.6273 0.7695
vn 0.6025 0.5440 0.5840
vn -0.9455 0.2575 0.1994
vn -0.8672 0.3811 0.3203
vt 0.753903 0.273442
vt 0.000000 0.000000
vt 0.808591 0.273442
vt 0.753903 0.296880
vt 0.847654 0.273442
vt 0.902342 0.296880
vt 0.941406 0.273442
vt 0.000000 0.000000
vt 0.941406 0.296880
vt 0.902342 0.273442
vt 0.746090 0.085939
vt 0.804700 0.085939
vt 0.851576 0.085939
vt 0.910155 0.085939
vt 0.949218 0.085939
vt 0.996094 0.281254
vt 0.953140 0.218753
vt 0.953140 0.335943
vt 0.953140 0.218753
vt 0.996094 0.171878
vt 0.996094 0.218753
vt 0.972656 0.085939
vt 0.996094 0.085939
vt 0.996094 0.171878
vt 0.972656 0.085939
vt 0.671885 0.656260
vt 0.710948 0.742199
vt 0.679698 0.718761
vt 0.996094 0.085939
vt 0.996094 0.007813
vt 0.972656 0.007813
vt 0.996094 0.218753
vt 0.910155 0.007813
vt 0.843763 0.046876
vt 0.816404 0.046876
vt 0.746090 0.007813
vt 0.949218 0.007813
vt 0.851576 0.007813
vt 0.808591 0.007813
vt 0.996094 0.335943
vt 0.750012 0.656260
vt 0.742199 0.718761
vt 0.683589 0.570321
vt 0.738277 0.570321
vt 0.808591 0.273442
vt 0.000000 0.000000
vt 0.847654 0.273442
vt 0.902342 0.296880
vt 0.941406 0.296880
vt 0.000000 0.000000
s 1
usemtl normalhorse_mat
f 10/12/1 4/5/2 2/3/3
f 9/11/4 10/12/1 2/3/3
f 1/1/5 9/11/4 2/3/3
f 1/1/5 2/3/3 3/4/6
f 5/6/7 6/7/8 7/9/9
f 8/10/10 6/7/8 5/6/7
f 4/5/2 8/10/10 5/6/7
f 4/5/2 12/14/11 8/10/10
f 4/5/2 11/13/12 12/14/11
f 10/12/1 11/13/12 4/5/2
f 11/13/12 10/12/1 32/34/13
f 31/33/14 11/13/12 32/34/13
f 12/14/11 11/13/12 31/33/14
f 12/14/11 31/33/14 35/37/15
f 13/15/16 12/14/11 35/37/15
f 6/7/8 12/14/11 13/15/16
f 8/10/10 12/14/11 6/7/8
f 14/16/17 15/17/18 16/18/19
f 14/16/17 30/32/20 15/17/18
f 30/32/20 22/24/21 15/17/18
f 15/17/18 22/24/21 23/25/22
f 22/24/21 27/29/23 23/25/22
f 29/31/24 23/25/22 27/29/23
f 27/29/23 28/30/25 29/31/24
f 17/19/26 18/20/27 19/21/28
f 18/20/27 17/19/26 20/22/29
f 20/22/29 21/23/30 18/20/27
f 24/26/31 25/27/32 26/28/33
f 24/26/31 41/43/34 25/27/32
f 25/27/32 41/43/34 42/44/35
f 25/27/32 42/44/35 39/41/36
f 25/27/32 39/41/36 40/42/37
f 10/12/1 33/35/38 32/34/13
f 10/12/1 34/36/39 33/35/38
f 10/12/1 9/11/4 34/36/39
f 33/35/38 34/36/39 37/39/40
f 33/35/38 37/39/40 36/38/41
f 32/34/13 33/35/38 36/38/41
f 31/33/14 32/34/13 36/38/41
f 16/18/19 38/40/42 14/16/17
f 5/6/7 46/49/43 45/48/44
f 45/48/44 43/45/45 44/47/46
s 0
f 2/2/47 46/50/47 7/8/47
s 1
f 2/3/3 44/47/46 43/45/45
f 5/6/7 44/47/46 4/5/2
f 5/6/7 7/9/9 46/49/43
f 45/48/44 46/49/43 43/45/45
s 0
f 2/2/48 43/46/48 46/50/48
s 1
f 2/3/3 4/5/2 44/47/46
f 5/6/7 45/48/44 44/47/46
