# Blender 3.4.1
# www.blender.org
mtllib caballo_pataDelDerAba.mtl
o pataDDA
v -0.083143 0.070572 -0.088998
v 0.047103 0.070687 -0.089351
v -0.060717 -0.078676 -0.113652
v -0.105043 -0.027012 0.091370
v 0.047103 0.070687 -0.089351
v 0.078071 -0.009868 0.094800
v 0.011752 -0.078674 -0.113654
v -0.083231 -0.115373 0.067684
v 0.057541 -0.103874 0.068470
v 0.011752 -0.078674 -0.113654
v -0.126480 -0.521168 0.115634
v 0.091223 -0.512396 0.129360
v -0.090576 -0.605692 -0.149143
v 0.068048 -0.605692 -0.149143
v 0.068048 -0.605692 -0.149143
v 0.069075 -0.705030 -0.076127
v -0.109960 -0.786194 -0.060069
v -0.096712 -0.705030 -0.076128
v 0.135933 -0.786194 0.117879
v 0.090930 -0.786194 0.239827
v -0.014173 -0.786194 0.284560
v -0.157322 -0.786194 0.117879
v 0.135933 -0.786194 0.117879
v 0.069075 -0.705030 -0.076127
v 0.078845 -0.640821 0.192128
v -0.014173 -0.786194 0.284560
v 0.078845 -0.640821 0.192128
v -0.104714 -0.644797 0.192128
v 0.090930 -0.786194 0.239827
v 0.080661 -0.786194 -0.060069
v 0.080661 -0.786194 -0.060069
v -0.119050 -0.786194 0.239827
v -0.096712 -0.705030 -0.076128
v -0.071091 -0.586725 0.116682
v 0.044038 -0.584383 0.116682
v 0.069075 -0.705030 -0.076127
v 0.069075 -0.705030 -0.076127
v -0.104714 -0.644797 0.192128
v 0.078845 -0.640821 0.192128
v 0.090930 -0.786194 0.239827
v -0.119050 -0.786194 0.239827
v -0.157322 -0.786194 0.117879
v -0.109960 -0.786194 -0.060069
v 0.080661 -0.786194 -0.060069
v -0.072054 0.053835 0.049264
v 0.058192 0.053950 0.048911
vn -0.6104 0.6878 -0.3929
vn 0.8908 0.2059 -0.4051
vn -0.5612 -0.0642 -0.8252
vn -0.8340 0.0599 0.5485
vn -0.7708 -0.0239 0.6366
vn -0.8084 -0.0890 -0.5818
vn -0.7847 -0.1704 0.5960
vn 0.6245 -0.0784 0.7771
vn 0.9104 -0.0171 0.4134
vn 0.6779 -0.0544 -0.7332
vn 0.7168 -0.0865 -0.6919
vn 0.7294 0.1030 0.6763
vn 0.7572 0.3173 -0.5709
vn 0.7159 -0.0864 -0.6929
vn 0.6706 -0.0567 -0.7397
vn 0.8250 -0.1264 -0.5509
vn -0.9082 -0.1097 -0.4039
vn -0.6749 0.1989 0.7106
vn -0.6661 0.5463 0.5078
vn 0.6202 0.1431 0.7713
vn 0.8268 -0.1255 -0.5483
vn 0.6430 0.5773 0.5033
vn 0.8248 -0.1259 -0.5512
vn -0.2830 -0.6866 -0.6697
vn -0.9087 -0.1010 -0.4051
vn 0.3639 -0.7984 -0.4797
vn -0.9067 -0.4211 -0.0238
vn -0.6620 0.5670 0.4901
vn -0.7247 -0.2607 0.6379
vn -0.0000 -0.8245 0.5658
vn 0.6458 0.5642 0.5145
vn 0.7027 -0.2622 0.6614
vn 0.9046 -0.4252 -0.0315
vn 0.7022 -0.2598 0.6628
vn -0.0000 -0.8268 0.5625
vn 0.3650 -0.7953 -0.4841
vn -0.2841 -0.6850 -0.6708
vn -0.9085 -0.4173 -0.0237
vn -0.7248 -0.2598 0.6381
vn 0.9051 -0.4240 -0.0314
vn 0.8268 -0.1237 -0.5487
vn 0.6561 0.5617 0.5040
vn 0.7005 -0.2624 0.6637
vn 0.3621 -0.7982 -0.4815
vn -0.4612 0.6968 0.5493
vn 0.3348 0.6927 -0.6388
vt 0.144518 0.289067
vt 0.183581 0.289067
vt 0.144518 0.257816
vt 0.097643 0.273442
vt 0.011704 0.289067
vt 0.058579 0.273442
vt 0.011704 0.257816
vt 0.097643 0.242191
vt 0.058579 0.242191
vt 0.183581 0.257816
vt 0.101564 0.085939
vt 0.054688 0.085939
vt 0.152331 0.085939
vt 0.191394 0.085939
vt 0.003891 0.085939
vt 0.972656 0.007813
vt 0.996094 0.085939
vt 0.972656 0.085939
vt 0.671885 0.656260
vt 0.679698 0.718761
vt 0.710948 0.742199
vt 0.996094 0.171878
vt 0.996094 0.171878
vt 0.972656 0.085939
vt 0.953140 0.218753
vt 0.996094 0.281254
vt 0.953140 0.335943
vt 0.953140 0.218753
vt 0.996094 0.218753
vt 0.996094 0.085939
vt 0.996094 0.007813
vt 0.996094 0.218753
vt 0.152331 0.007813
vt 0.093751 0.039063
vt 0.062501 0.039063
vt 0.003891 0.007813
vt 0.191394 0.007813
vt 0.097643 0.007813
vt 0.058579 0.007813
vt 0.996094 0.335943
vt 0.742199 0.718761
vt 0.750012 0.656260
vt 0.738277 0.570321
vt 0.683589 0.570321
vt 0.144518 0.289067
vt 0.183581 0.289067
s 1
usemtl normalhorse_mat
f 1/1/1 2/2/2 3/3/3
f 3/3/3 4/4/4 1/1/1
f 3/3/3 8/8/5 4/4/4
f 8/8/5 3/3/3 13/13/6
f 8/8/5 13/13/6 11/11/7
f 8/8/5 11/11/7 12/12/8
f 12/12/8 9/9/9 8/8/5
f 9/9/9 12/12/8 15/15/10
f 7/7/11 9/9/9 15/15/10
f 6/6/12 9/9/9 7/7/11
f 6/6/12 7/7/11 5/5/13
f 4/4/4 8/8/5 6/6/12
f 8/8/5 9/9/9 6/6/12
f 10/10/14 3/3/3 2/2/2
f 3/3/3 10/10/14 14/14/15
f 3/3/3 14/14/15 13/13/6
f 14/14/15 37/37/16 13/13/6
f 37/37/16 33/33/17 13/13/6
f 13/13/6 33/33/17 11/11/7
f 33/33/17 34/34/18 11/11/7
f 33/33/17 38/38/19 34/34/18
f 34/34/18 38/38/19 35/35/20
f 34/34/18 35/35/20 12/12/8
f 11/11/7 34/34/18 12/12/8
f 12/12/8 35/35/20 36/36/21
f 12/12/8 36/36/21 15/15/10
f 35/35/20 39/39/22 36/36/21
f 38/38/19 39/39/22 35/35/20
f 16/16/23 17/17/24 18/18/25
f 17/17/24 16/16/23 31/31/26
f 22/22/27 18/18/25 17/17/24
f 28/28/28 18/18/25 22/22/27
f 32/32/29 28/28/28 22/22/27
f 26/26/30 28/28/28 32/32/29
f 26/26/30 27/27/31 28/28/28
f 27/27/31 26/26/30 40/40/32
f 19/19/33 20/20/34 21/21/35
f 44/44/36 19/19/33 21/21/35
f 43/43/37 44/44/36 21/21/35
f 43/43/37 21/21/35 42/42/38
f 21/21/35 41/41/39 42/42/38
f 23/23/40 24/24/41 25/25/42
f 25/25/42 29/29/43 23/23/40
f 24/24/41 23/23/40 30/30/44
f 2/2/2 45/45/45 46/46/46
f 6/6/12 45/45/45 4/4/4
f 4/4/4 45/45/45 1/1/1
f 6/6/12 5/5/13 46/46/46
f 2/2/2 1/1/1 45/45/45
f 6/6/12 46/46/46 45/45/45
