# Blender 3.4.1
# www.blender.org
mtllib caballo_Cola.mtl
o cola1
v 0.008820 -0.032060 -0.009218
v -0.055821 -0.028870 -0.013797
v -0.050019 -0.061858 -0.070719
v 0.008820 0.047500 0.019248
v 0.008820 -0.011793 -0.127510
v 0.067659 -0.061858 -0.070719
v 0.073461 -0.028870 -0.013797
v 0.008820 -0.288732 -0.321358
v -0.102706 -0.314505 -0.220723
v 0.008820 -0.298857 -0.139082
v 0.120346 -0.314505 -0.220723
v 0.008820 -0.032060 -0.009218
v -0.055821 -0.028870 -0.013797
v -0.050019 -0.061858 -0.070719
v 0.008820 -0.324051 -0.288609
v -0.060523 -0.349824 -0.224404
v 0.008820 -0.334176 -0.172316
v 0.078163 -0.349824 -0.224404
vn 0.3253 -0.9446 0.0436
vn -0.9323 0.2881 0.2186
vn -0.0000 -0.5235 0.8520
vn 0.9493 -0.0486 0.3106
vn 0.8129 -0.1748 -0.5555
vn -0.0000 0.7765 -0.6301
vn -0.0000 0.7727 -0.6348
vn -0.3281 0.7567 -0.5655
vn -0.9533 -0.2652 -0.1447
vn -0.0000 -0.0062 -1.0000
vn 0.9333 -0.3262 -0.1505
vn -0.7146 -0.6988 0.0321
vn 0.2496 -0.9515 0.1800
vn -0.0722 -0.7772 0.6250
vn -0.0000 -0.1342 -0.9910
vn 0.4114 0.4780 -0.7761
vn -0.4114 0.4780 -0.7761
vn -0.0000 -0.8029 -0.5961
vn -0.0000 -0.8532 0.5215
vn 0.3393 -0.9401 0.0340
vn -0.3777 -0.9205 -0.1004
vn -0.0000 0.1645 -0.9864
vt 0.250004 0.500008
vt 0.273442 0.500008
vt 0.273442 0.476570
vt 0.296880 0.500008
vt 0.300771 0.476570
vt 0.273442 0.476570
vt 0.273442 0.500008
vt 0.308583 0.406256
vt 0.273442 0.398444
vt 0.242191 0.414069
vt 0.273442 0.398444
vt 0.250004 0.500008
vt 0.273442 0.500008
vt 0.273442 0.476570
vt 0.308583 0.406256
vt 0.273442 0.398444
vt 0.242191 0.414069
vt 0.273442 0.398444
s 1
usemtl normalhorse_mat
f 1/1/1 3/3/2 10/10/3
f 1/1/1 10/10/3 6/6/4
f 1/1/1 6/6/4 7/7/5
f 5/5/6 7/7/5 6/6/4
f 4/4/7 7/7/5 5/5/6
f 4/4/7 5/5/6 2/2/8
f 5/5/6 3/3/2 2/2/8
f 5/5/6 9/9/9 3/3/2
f 5/5/6 8/8/10 9/9/9
f 5/5/6 11/11/11 8/8/10
f 5/5/6 6/6/4 11/11/11
f 10/10/3 11/11/11 6/6/4
f 10/10/3 3/3/2 9/9/9
f 12/12/12 13/13/13 14/14/14
f 12/12/15 13/13/16 7/7/17
f 11/11/11 15/15/18 8/8/10
f 17/17/19 15/15/18 18/18/20
f 9/9/9 17/17/19 10/10/3
f 9/9/9 15/15/18 16/16/21
f 11/11/11 17/17/19 18/18/20
f 13/13/16 4/4/22 7/7/17
f 11/11/11 18/18/20 15/15/18
f 17/17/19 16/16/21 15/15/18
f 9/9/9 16/16/21 17/17/19
f 9/9/9 8/8/10 15/15/18
f 11/11/11 10/10/3 17/17/19
