# Blender 3.5.1
# www.blender.org
mtllib arbusto.mtl
o Plane.005
v 0.959483 1.572698 0.979040
v 1.959483 -0.159352 0.979040
v 1.825508 2.072699 0.979040
v 2.825508 0.340648 0.979040
v 1.782207 2.047698 1.029040
v 2.782207 0.315648 1.029040
v 1.782207 2.047698 0.029040
v 2.782207 0.315648 0.029040
v 0.962832 1.516897 1.029040
v 0.962832 1.516897 0.029040
v 1.828858 2.016897 1.029040
v 1.828858 2.016897 0.029040
v 1.002784 1.597698 1.029040
v 2.002784 -0.134352 1.029040
v 1.002784 1.597698 0.029040
v 2.002784 -0.134352 0.029040
v 0.959483 1.572698 0.079040
v 1.959483 -0.159352 0.079040
v 1.825508 2.072699 0.079040
v 2.825508 0.340648 0.079040
v 1.912832 -0.128551 1.029040
v 1.912832 -0.128551 0.029040
v 2.778858 0.371449 1.029040
v 2.778858 0.371449 0.029040
v -1.000000 -0.050000 0.450000
v 1.000000 -0.050000 0.450000
v -1.000000 0.950000 0.450000
v 1.000000 0.950000 0.450000
v -1.000000 0.900000 0.500000
v 1.000000 0.900000 0.500000
v -1.000000 0.900000 -0.500000
v 1.000000 0.900000 -0.500000
v -0.950000 -0.075000 0.500000
v -0.950000 -0.075000 -0.500000
v -0.950000 0.925000 0.500000
v -0.950000 0.925000 -0.500000
v -1.000000 -0.000000 0.500000
v 1.000000 0.000000 0.500000
v -1.000000 0.000000 -0.500000
v 1.000000 0.000000 -0.500000
v -1.000000 -0.050000 -0.450000
v 1.000000 -0.050000 -0.450000
v -1.000000 0.950000 -0.450000
v 1.000000 0.950000 -0.450000
v 0.950000 -0.075000 0.500000
v 0.950000 -0.075000 -0.500000
v 0.950000 0.925000 0.500000
v 0.950000 0.925000 -0.500000
v -1.000000 -0.050000 1.445474
v 1.000000 -0.050000 1.445474
v -1.000000 0.950000 1.445474
v 1.000000 0.950000 1.445474
v -1.000000 0.900000 1.495474
v 1.000000 0.900000 1.495474
v -1.000000 0.900000 0.495474
v 1.000000 0.900000 0.495474
v -0.950000 -0.075000 1.495474
v -0.950000 -0.075000 0.495474
v -0.950000 0.925000 1.495474
v -0.950000 0.925000 0.495474
v -1.000000 -0.000000 1.495474
v 1.000000 0.000000 1.495474
v -1.000000 -0.000000 0.495474
v 1.000000 0.000000 0.495474
v -1.000000 -0.050000 0.545474
v 1.000000 -0.050000 0.545474
v -1.000000 0.950000 0.545474
v 1.000000 0.950000 0.545474
v 0.950000 -0.075000 1.495474
v 0.950000 -0.075000 0.495474
v 0.950000 0.925000 1.495474
v 0.950000 0.925000 0.495474
v -0.043753 0.932127 1.450000
v -0.043754 0.932127 -0.550000
v -0.043753 1.932127 1.450000
v -0.043754 1.932127 -0.550000
v 0.006247 1.882127 1.450000
v 0.006247 1.882127 -0.550000
v -0.993753 1.882127 1.450000
v -0.993753 1.882128 -0.550000
v 0.006247 0.907127 1.400000
v -0.993753 0.907127 1.400000
v 0.006247 1.907127 1.400000
v -0.993753 1.907127 1.400000
v 0.006247 0.982127 1.450000
v 0.006247 0.982127 -0.550000
v -0.993753 0.982127 1.450000
v -0.993753 0.982127 -0.550000
v -0.943753 0.932127 1.450000
v -0.943753 0.932127 -0.550000
v -0.943753 1.932127 1.450000
v -0.943753 1.932127 -0.550000
v 0.006247 0.907127 -0.500000
v -0.993753 0.907127 -0.500000
v 0.006247 1.907127 -0.500000
v -0.993753 1.907127 -0.500000
v 0.961716 0.932130 1.500000
v 0.961716 0.932130 -0.500000
v 0.961716 1.932130 1.500000
v 0.961716 1.932130 -0.500000
v 1.011716 1.882130 1.500000
v 1.011716 1.882130 -0.500000
v 0.011716 1.882130 1.500000
v 0.011716 1.882130 -0.500000
v 1.011716 0.907130 1.450000
v 0.011716 0.907130 1.450000
v 1.011716 1.907130 1.450000
v 0.011716 1.907130 1.450000
v 1.011716 0.982130 1.500000
v 1.011716 0.982130 -0.500000
v 0.011716 0.982130 1.500000
v 0.011716 0.982130 -0.500000
v 0.061716 0.932130 1.500000
v 0.061716 0.932130 -0.500000
v 0.061716 1.932130 1.500000
v 0.061716 1.932130 -0.500000
v 1.011716 0.907130 -0.450000
v 0.011716 0.907130 -0.450000
v 1.011716 1.907130 -0.450000
v 0.011716 1.907130 -0.450000
v -1.000000 1.897529 0.450000
v 1.000000 1.897529 0.450000
v -1.000000 2.897529 0.450000
v 1.000000 2.897529 0.450000
v -1.000000 2.847528 0.500000
v 1.000000 2.847529 0.500000
v -1.000000 2.847528 -0.500000
v 1.000000 2.847528 -0.500000
v -0.950000 1.872529 0.500000
v -0.950000 1.872529 -0.500000
v -0.950000 2.872529 0.500000
v -0.950000 2.872529 -0.500000
v -1.000000 1.947529 0.500000
v 1.000000 1.947529 0.500000
v -1.000000 1.947529 -0.500000
v 1.000000 1.947529 -0.500000
v -1.000000 1.897529 -0.450000
v 1.000000 1.897529 -0.450000
v -1.000000 2.897529 -0.450000
v 1.000000 2.897529 -0.450000
v 0.950000 1.872529 0.500000
v 0.950000 1.872529 -0.500000
v 0.950000 2.872529 0.500000
v 0.950000 2.872529 -0.500000
vn -0.0000 -0.0000 1.0000
vn 0.8660 0.5000 -0.0000
vn 0.5000 -0.8660 -0.0000
vn -0.0000 1.0000 -0.0000
vn 1.0000 -0.0000 -0.0000
vn -0.0000 -0.0000 -1.0000
vt 0.000000 0.000000
vt 1.000000 0.000000
vt 0.000000 1.000000
vt 1.000000 1.000000
vt 0.000000 0.000000
vt 1.000000 0.000000
vt 0.000000 1.000000
vt 1.000000 1.000000
vt 0.000000 0.000000
vt 1.000000 0.000000
vt 0.000000 1.000000
vt 1.000000 1.000000
vt 0.000000 0.000000
vt 1.000000 0.000000
vt 0.000000 1.000000
vt 1.000000 1.000000
vt 0.000000 0.000000
vt 1.000000 0.000000
vt 0.000000 1.000000
vt 1.000000 1.000000
vt 0.000000 0.000000
vt 1.000000 0.000000
vt 0.000000 1.000000
vt 1.000000 1.000000
vt 0.000000 0.000000
vt 1.000000 0.000000
vt 0.000000 1.000000
vt 1.000000 1.000000
vt 0.000000 0.000000
vt 1.000000 0.000000
vt 0.000000 1.000000
vt 1.000000 1.000000
vt 0.000000 0.000000
vt 1.000000 0.000000
vt 0.000000 1.000000
vt 1.000000 1.000000
vt 0.000000 0.000000
vt 1.000000 0.000000
vt 0.000000 1.000000
vt 1.000000 1.000000
vt 0.000000 0.000000
vt 1.000000 0.000000
vt 0.000000 1.000000
vt 1.000000 1.000000
vt 0.000000 0.000000
vt 1.000000 0.000000
vt 0.000000 1.000000
vt 1.000000 1.000000
vt 0.000000 0.000000
vt 1.000000 0.000000
vt 0.000000 1.000000
vt 1.000000 1.000000
vt 0.000000 0.000000
vt 1.000000 0.000000
vt 0.000000 1.000000
vt 1.000000 1.000000
vt 0.000000 0.000000
vt 1.000000 0.000000
vt 0.000000 1.000000
vt 1.000000 1.000000
vt 0.000000 0.000000
vt 1.000000 0.000000
vt 0.000000 1.000000
vt 1.000000 1.000000
vt 0.000000 0.000000
vt 1.000000 0.000000
vt 0.000000 1.000000
vt 1.000000 1.000000
vt 0.000000 0.000000
vt 1.000000 0.000000
vt 0.000000 1.000000
vt 1.000000 1.000000
vt 0.000000 0.000000
vt 1.000000 0.000000
vt 0.000000 1.000000
vt 1.000000 1.000000
vt 0.000000 0.000000
vt 1.000000 0.000000
vt 0.000000 1.000000
vt 1.000000 1.000000
vt 0.000000 0.000000
vt 1.000000 0.000000
vt 0.000000 1.000000
vt 1.000000 1.000000
vt 0.000000 0.000000
vt 1.000000 0.000000
vt 0.000000 1.000000
vt 1.000000 1.000000
vt 0.000000 0.000000
vt 1.000000 0.000000
vt 0.000000 1.000000
vt 1.000000 1.000000
vt 0.000000 0.000000
vt 1.000000 0.000000
vt 0.000000 1.000000
vt 1.000000 1.000000
vt 0.000000 0.000000
vt 1.000000 0.000000
vt 0.000000 1.000000
vt 1.000000 1.000000
vt 0.000000 0.000000
vt 1.000000 0.000000
vt 0.000000 1.000000
vt 1.000000 1.000000
vt 0.000000 0.000000
vt 1.000000 0.000000
vt 0.000000 1.000000
vt 1.000000 1.000000
vt 0.000000 0.000000
vt 1.000000 0.000000
vt 0.000000 1.000000
vt 1.000000 1.000000
vt 0.000000 0.000000
vt 1.000000 0.000000
vt 0.000000 1.000000
vt 1.000000 1.000000
vt 0.000000 0.000000
vt 1.000000 0.000000
vt 0.000000 1.000000
vt 1.000000 1.000000
vt 0.000000 0.000000
vt 1.000000 0.000000
vt 0.000000 1.000000
vt 1.000000 1.000000
vt 0.000000 0.000000
vt 1.000000 0.000000
vt 0.000000 1.000000
vt 1.000000 1.000000
vt 0.000000 0.000000
vt 1.000000 0.000000
vt 0.000000 1.000000
vt 1.000000 1.000000
vt 0.000000 0.000000
vt 1.000000 0.000000
vt 0.000000 1.000000
vt 1.000000 1.000000
vt 0.000000 0.000000
vt 1.000000 0.000000
vt 0.000000 1.000000
vt 1.000000 1.000000
vt 0.000000 0.000000
vt 1.000000 0.000000
vt 0.000000 1.000000
vt 1.000000 1.000000
s 0
usemtl Material.025
f 2/2/1 3/3/1 1/1/1
f 2/2/1 4/4/1 3/3/1
usemtl Material.026
f 6/6/2 7/7/2 5/5/2
f 6/6/2 8/8/2 7/7/2
usemtl Material.027
f 10/10/3 11/11/3 9/9/3
f 10/10/3 12/12/3 11/11/3
usemtl Material.028
f 14/14/2 15/15/2 13/13/2
f 14/14/2 16/16/2 15/15/2
usemtl Material.029
f 18/18/1 19/19/1 17/17/1
f 18/18/1 20/20/1 19/19/1
usemtl Material.030
f 22/22/3 23/23/3 21/21/3
f 22/22/3 24/24/3 23/23/3
usemtl Material.005
f 26/26/1 27/27/1 25/25/1
f 26/26/1 28/28/1 27/27/1
usemtl Material.001
f 30/30/4 31/31/4 29/29/4
f 30/30/4 32/32/4 31/31/4
usemtl Material.002
f 34/34/5 35/35/5 33/33/5
f 34/34/5 36/36/5 35/35/5
usemtl Material.003
f 38/38/4 39/39/4 37/37/4
f 38/38/4 40/40/4 39/39/4
usemtl Material.004
f 42/42/1 43/43/1 41/41/1
f 42/42/1 44/44/1 43/43/1
usemtl Material.006
f 46/46/5 47/47/5 45/45/5
f 46/46/5 48/48/5 47/47/5
usemtl Material.007
f 50/50/1 51/51/1 49/49/1
f 50/50/1 52/52/1 51/51/1
usemtl Material.008
f 54/54/4 55/55/4 53/53/4
f 54/54/4 56/56/4 55/55/4
usemtl Material.009
f 58/58/5 59/59/5 57/57/5
f 58/58/5 60/60/5 59/59/5
usemtl Material.010
f 62/62/4 63/63/4 61/61/4
f 62/62/4 64/64/4 63/63/4
usemtl Material.011
f 66/66/1 67/67/1 65/65/1
f 66/66/1 68/68/1 67/67/1
usemtl Material.012
f 70/70/5 71/71/5 69/69/5
f 70/70/5 72/72/5 71/71/5
usemtl Material.013
f 74/74/5 75/75/5 73/73/5
f 74/74/5 76/76/5 75/75/5
usemtl Material.014
f 78/78/4 79/79/4 77/77/4
f 78/78/4 80/80/4 79/79/4
usemtl Material.015
f 82/82/6 83/83/6 81/81/6
f 82/82/6 84/84/6 83/83/6
usemtl Material.016
f 86/86/4 87/87/4 85/85/4
f 86/86/4 88/88/4 87/87/4
usemtl Material.017
f 90/90/5 91/91/5 89/89/5
f 90/90/5 92/92/5 91/91/5
usemtl Material.018
f 94/94/6 95/95/6 93/93/6
f 94/94/6 96/96/6 95/95/6
usemtl Material.019
f 98/98/5 99/99/5 97/97/5
f 98/98/5 100/100/5 99/99/5
usemtl Material.020
f 102/102/4 103/103/4 101/101/4
f 102/102/4 104/104/4 103/103/4
usemtl Material.021
f 106/106/6 107/107/6 105/105/6
f 106/106/6 108/108/6 107/107/6
usemtl Material.022
f 110/110/4 111/111/4 109/109/4
f 110/110/4 112/112/4 111/111/4
usemtl Material.023
f 114/114/5 115/115/5 113/113/5
f 114/114/5 116/116/5 115/115/5
usemtl Material.024
f 118/118/6 119/119/6 117/117/6
f 118/118/6 120/120/6 119/119/6
usemtl Material.031
f 122/122/1 123/123/1 121/121/1
f 122/122/1 124/124/1 123/123/1
usemtl Material.032
f 126/126/4 127/127/4 125/125/4
f 126/126/4 128/128/4 127/127/4
usemtl Material.033
f 130/130/5 131/131/5 129/129/5
f 130/130/5 132/132/5 131/131/5
usemtl Material.034
f 134/134/4 135/135/4 133/133/4
f 134/134/4 136/136/4 135/135/4
usemtl Material.035
f 138/138/1 139/139/1 137/137/1
f 138/138/1 140/140/1 139/139/1
usemtl Material.036
f 142/142/5 143/143/5 141/141/5
f 142/142/5 144/144/5 143/143/5
