# Blender 3.4.1
# www.blender.org
mtllib caballo_ColaPunta.mtl
o cola2
v 0.007241 -0.032775 -0.081288
v -0.104285 -0.058548 0.019347
v 0.007241 -0.042900 0.100988
v 0.118767 -0.058548 0.019347
v 0.008104 -1.502542 -0.123322
v 0.011332 -1.279658 -0.010035
v -0.246557 -0.906916 -0.074413
v 0.007233 -0.377136 0.105352
v -0.171691 -0.471780 0.003509
v -0.011718 -0.820878 0.104850
v -0.027598 -0.976071 -0.207959
v -0.080933 -0.431568 -0.154081
v 0.002473 -0.463634 -0.191303
v 0.011523 -1.344104 0.031584
v 0.170885 -0.886516 -0.052861
v 0.181056 -0.472093 0.009091
v 0.087964 -0.431859 -0.149259
v 0.007241 0.024677 -0.035257
v -0.064961 -0.001096 0.020830
v 0.007241 0.014552 0.073101
v 0.079443 -0.001096 0.020830
vn -0.0000 0.2323 0.9726
vn -0.0012 0.0327 0.9995
vn 0.9091 0.3819 0.1664
vn -0.9093 0.3742 0.1821
vn -0.9097 0.1250 0.3960
vn -0.6226 0.1823 -0.7610
vn -0.9775 -0.1583 -0.1397
vn 0.0036 -0.0994 0.9950
vn 0.9272 0.0313 0.3732
vn 0.6516 0.1257 -0.7481
vn 0.9812 -0.1655 -0.0993
vn 0.0845 -0.9886 0.1246
vn 0.3172 -0.9426 -0.1045
vn 0.0120 -0.9385 -0.3451
vn 0.0289 -0.0412 -0.9987
vn 0.0319 0.1138 -0.9930
vn 0.0038 0.4718 -0.8817
vn -0.7453 0.6663 0.0234
vn -0.0000 0.8720 -0.4895
vn -0.0000 0.7625 0.6470
vn 0.6574 0.7444 0.1170
vt 0.308583 0.406256
vt 0.273442 0.398444
vt 0.242191 0.414069
vt 0.273442 0.398444
vt 0.273442 0.007813
vt 0.246082 0.070314
vt 0.273442 0.171878
vt 0.226566 0.312505
vt 0.265629 0.289067
vt 0.218753 0.179690
vt 0.316396 0.148440
vt 0.308583 0.296880
vt 0.324208 0.289067
vt 0.226566 0.062501
vt 0.273442 0.171878
vt 0.265629 0.289067
vt 0.308583 0.296880
vt 0.308583 0.406256
vt 0.273442 0.398444
vt 0.242191 0.414069
vt 0.273442 0.398444
s 1
usemtl normalhorse_mat
f 3/3/1 8/8/2 4/4/3
f 3/3/1 2/2/4 8/8/2
f 2/2/4 9/9/5 8/8/2
f 9/9/5 2/2/4 12/12/6
f 9/9/5 12/12/6 7/7/7
f 9/9/5 7/7/7 10/10/8
f 8/8/2 9/9/5 10/10/8
f 8/8/2 10/10/8 16/16/9
f 4/4/3 8/8/2 16/16/9
f 16/16/9 17/17/10 4/4/3
f 16/16/9 15/15/11 17/17/10
f 16/16/9 10/10/8 15/15/11
f 14/14/12 15/15/11 10/10/8
f 14/14/12 10/10/8 7/7/7
f 6/6/13 14/14/12 7/7/7
f 5/5/14 6/6/13 7/7/7
f 7/7/7 11/11/15 5/5/14
f 12/12/6 11/11/15 7/7/7
f 12/12/6 13/13/16 11/11/15
f 12/12/6 1/1/17 13/13/16
f 12/12/6 2/2/4 1/1/17
f 17/17/10 1/1/17 4/4/3
f 17/17/10 13/13/16 1/1/17
f 17/17/10 11/11/15 13/13/16
f 17/17/10 15/15/11 11/11/15
f 15/15/11 5/5/14 11/11/15
f 5/5/14 15/15/11 6/6/13
f 6/6/13 15/15/11 14/14/12
f 1/1/17 19/19/18 18/18/19
f 20/20/20 18/18/19 19/19/18
f 3/3/1 19/19/18 2/2/4
f 3/3/1 21/21/21 20/20/20
f 1/1/17 21/21/21 4/4/3
f 1/1/17 2/2/4 19/19/18
f 20/20/20 21/21/21 18/18/19
f 3/3/1 20/20/20 19/19/18
f 3/3/1 4/4/3 21/21/21
f 1/1/17 18/18/19 21/21/21
