# Blender 3.4.1
# www.blender.org
mtllib caballo_pataTraDerAba.mtl
o pataTDA
v 0.052368 -0.067566 -0.086524
v 0.085961 0.079111 -0.141247
v 0.067426 -0.040839 0.101522
v -0.103643 0.078415 -0.140354
v -0.082648 -0.065159 0.101522
v 0.085961 0.079111 -0.141247
v 0.052368 -0.067566 -0.086524
v -0.053923 -0.067566 -0.086524
v 0.068971 -0.665759 -0.146158
v 0.093263 -0.553988 0.140816
v -0.132902 -0.568111 0.140816
v 0.068971 -0.665759 -0.146158
v -0.104931 -0.665759 -0.146158
v -0.020825 -0.863643 0.321760
v 0.070590 -0.701487 0.221658
v -0.109761 -0.705464 0.221658
v 0.070590 -0.701487 0.221658
v 0.080139 -0.863643 0.281619
v 0.127819 -0.863643 0.150575
v 0.074847 -0.776902 -0.044038
v 0.073649 -0.863643 -0.030475
v -0.111628 -0.776902 -0.044038
v -0.166099 -0.863643 0.150575
v 0.127819 -0.863643 0.150575
v 0.080139 -0.863643 0.281619
v -0.020825 -0.863643 0.321760
v -0.115248 -0.863643 -0.030475
v 0.074847 -0.776902 -0.044038
v 0.073649 -0.863643 -0.030475
v -0.121308 -0.863643 0.281619
v -0.111628 -0.776902 -0.044038
v -0.074909 -0.640789 0.126165
v 0.039243 -0.633097 0.126165
v 0.074847 -0.776902 -0.044038
v 0.074847 -0.776902 -0.044038
v -0.109761 -0.705464 0.221658
v 0.070590 -0.701487 0.221658
v 0.080139 -0.863643 0.281619
v -0.121308 -0.863643 0.281619
v -0.166099 -0.863643 0.150575
v -0.115248 -0.863643 -0.030475
v 0.073649 -0.863643 -0.030475
v 0.045964 0.030426 0.080835
v -0.088293 0.120188 -0.064631
v -0.071816 0.007023 0.086695
v 0.060511 0.120689 -0.065229
vn -0.7494 0.4094 -0.5203
vn 0.7708 0.3842 -0.5081
vn 0.4284 -0.1572 -0.8898
vn -0.6433 -0.1274 -0.7550
vn -0.7873 0.1567 0.5963
vn 0.6142 -0.1234 0.7794
vn 0.6921 0.0976 0.7152
vn 0.8274 -0.1395 -0.5441
vn 0.4332 -0.1572 -0.8875
vn 0.8656 0.3790 -0.3274
vn -0.7259 -0.1532 0.6706
vn -0.5686 0.1229 0.8134
vn -0.9242 -0.1452 -0.3532
vn -0.6950 -0.0678 -0.7158
vn 0.8223 -0.1420 -0.5511
vn 0.8460 -0.1725 -0.5046
vn -0.6659 0.5465 0.5078
vn 0.5976 0.1832 0.7806
vn 0.8425 -0.1749 -0.5095
vn 0.6612 0.5357 0.5252
vn -0.0000 -0.8245 0.5659
vn 0.6593 0.5450 0.5181
vn -0.6632 0.5650 0.4909
vn -0.7078 -0.2492 0.6610
vn -0.8897 -0.4564 -0.0157
vn -0.9237 -0.1506 -0.3523
vn -0.2829 -0.6868 -0.6696
vn 0.8462 -0.1736 -0.5039
vn 0.3545 -0.8115 -0.4645
vn 0.6517 0.5472 0.5252
vn 0.7004 -0.2624 0.6638
vn 0.8817 -0.4716 -0.0157
vn 0.8420 -0.1781 -0.5093
vn 0.3543 -0.8115 -0.4647
vn 0.8812 -0.4724 -0.0158
vn 0.7023 -0.2598 0.6628
vn -0.0000 -0.8268 0.5625
vn 0.3548 -0.8110 -0.4651
vn -0.2841 -0.6850 -0.6708
vn -0.8895 -0.4567 -0.0157
vn -0.7075 -0.2520 0.6603
vn 0.7027 -0.2620 0.6615
vn -0.5492 0.3394 0.7637
vn -0.0708 0.5102 0.8572
vn -0.6833 0.7242 -0.0931
vn 0.9085 0.3429 0.2388
vn 0.7058 0.6662 0.2408
vn 0.9573 0.1933 0.2148
vt 0.753903 0.273442
vt 0.753903 0.296880
vt 0.861909 0.241831
vt 0.808591 0.273442
vt 0.902342 0.296880
vt 0.847654 0.273442
vt 0.941406 0.296880
vt 0.861909 0.241831
vt 0.941406 0.273442
vt 0.902342 0.273442
vt 0.746090 0.085939
vt 0.804700 0.085939
vt 0.851576 0.085939
vt 0.949218 0.085939
vt 0.910155 0.085939
vt 0.996094 0.281254
vt 0.953140 0.335943
vt 0.953140 0.218753
vt 0.953140 0.218753
vt 0.996094 0.218753
vt 0.996094 0.171878
vt 0.972656 0.085939
vt 0.996094 0.085939
vt 0.972656 0.085939
vt 0.996094 0.171878
vt 0.671885 0.656260
vt 0.679698 0.718761
vt 0.710948 0.742199
vt 0.996094 0.085939
vt 0.972656 0.007813
vt 0.996094 0.007813
vt 0.996094 0.218753
vt 0.910155 0.007813
vt 0.843763 0.046876
vt 0.816404 0.046876
vt 0.746090 0.007813
vt 0.949218 0.007813
vt 0.851576 0.007813
vt 0.808591 0.007813
vt 0.996094 0.335943
vt 0.742199 0.718761
vt 0.750012 0.656260
vt 0.738277 0.570321
vt 0.683589 0.570321
vt 0.808591 0.273442
vt 0.861909 0.241831
vt 0.902342 0.296880
vt 0.847654 0.273442
vt 0.861909 0.241831
vt 0.941406 0.296880
s 1
usemtl normalhorse_mat
f 4/5/1 6/7/2 7/9/3
f 8/10/4 4/5/1 7/9/3
f 5/6/5 4/5/1 8/10/4
f 10/12/6 3/4/7 5/6/5
f 9/11/8 3/4/7 10/12/6
f 1/1/9 3/4/7 9/11/8
f 1/1/9 2/2/10 3/4/7
f 10/12/6 5/6/5 11/13/11
f 11/13/11 32/34/12 10/12/6
f 31/33/13 32/34/12 11/13/11
f 13/15/14 31/33/13 11/13/11
f 5/6/5 13/15/14 11/13/11
f 5/6/5 8/10/4 13/15/14
f 8/10/4 7/9/3 13/15/14
f 7/9/3 12/14/15 13/15/14
f 12/14/15 35/37/16 13/15/14
f 35/37/16 31/33/13 13/15/14
f 31/33/13 36/38/17 32/34/12
f 32/34/12 36/38/17 33/35/18
f 32/34/12 33/35/18 10/12/6
f 10/12/6 33/35/18 34/36/19
f 10/12/6 34/36/19 9/11/8
f 33/35/18 37/39/20 34/36/19
f 36/38/17 37/39/20 33/35/18
f 14/16/21 15/17/22 16/18/23
f 14/16/21 16/18/23 30/32/24
f 30/32/24 16/18/23 23/25/25
f 16/18/23 22/24/26 23/25/25
f 23/25/25 22/24/26 27/29/27
f 28/30/28 27/29/27 22/24/26
f 27/29/27 28/30/28 29/31/29
f 17/19/30 18/20/31 19/21/32
f 19/21/32 20/22/33 17/19/30
f 20/22/33 19/21/32 21/23/34
f 24/26/35 25/27/36 26/28/37
f 24/26/35 26/28/37 42/44/38
f 26/28/37 41/43/39 42/44/38
f 26/28/37 40/42/40 41/43/39
f 26/28/37 39/41/41 40/42/40
f 15/17/22 14/16/21 38/40/42
f 3/4/7 45/48/43 5/6/5
f 43/45/44 44/47/45 45/48/43
s 0
f 6/8/46 43/46/46 3/3/46
s 1
f 4/5/1 45/48/43 44/47/45
f 4/5/1 46/50/47 6/7/2
f 3/4/7 43/45/44 45/48/43
f 43/45/44 46/50/47 44/47/45
s 0
f 6/8/48 46/49/48 43/46/48
s 1
f 4/5/1 5/6/5 45/48/43
f 4/5/1 44/47/45 46/50/47
