# Blender 3.4.1
# www.blender.org
mtllib estrella.mtl
o Plane
v -2.107903 0.438672 3.000000
v 2.073721 0.438672 3.000000
v -3.000000 0.438672 -0.549194
v 0.000000 0.438672 -2.692360
v 3.000000 0.438672 -0.631231
v 1.493697 0.438672 0.910927
v 0.884720 0.438672 -0.755967
v -0.918902 0.438672 -0.737737
v -1.477212 0.438672 0.894975
v 0.000000 0.438672 1.810269
v -0.028559 -0.161670 0.405711
v -0.011260 1.039014 0.395594
vn -0.2760 0.9160 0.2910
vn -0.2793 -0.9139 0.2945
vn -0.4155 -0.9011 -0.1245
vn 0.2146 -0.8997 0.3802
vn -0.2220 -0.8949 0.3870
vn 0.3960 -0.9116 -0.1100
vn 0.2750 -0.9232 0.2686
vn 0.0261 -0.8963 -0.4427
vn 0.3781 -0.9095 -0.1728
vn -0.3813 -0.9069 -0.1793
vn -0.0399 -0.8971 -0.4400
vn -0.4118 0.9029 -0.1234
vn 0.2145 0.8997 0.3801
vn -0.2195 0.8975 0.3826
vn 0.2758 0.9227 0.2694
vn 0.0263 0.8947 -0.4460
vn 0.3829 0.9071 -0.1750
vn -0.3786 0.9083 -0.1780
vn 0.4009 0.9094 -0.1113
vn -0.0401 0.8959 -0.4425
vt 0.203754 0.000000
vt 0.796246 0.000000
vt 0.000000 0.587734
vt 0.500000 1.000000
vt 1.000000 0.601407
vt 0.898123 0.300704
vt 0.750000 0.800704
vt 0.250000 0.793867
vt 0.101877 0.293867
vt 0.500000 0.000000
vt 0.491247 0.437715
vt 0.500841 0.434182
vt 0.504439 0.432858
vt 0.500858 0.442510
vt 0.500877 0.451521
vt 0.496127 0.444724
vt 0.489908 0.438208
vt 0.491247 0.437715
vt 0.500858 0.442510
vt 0.500841 0.434182
vt 0.500877 0.451521
s 0
usemtl dorado
f 3/3/1 9/9/1 12/18/1
f 3/3/2 11/17/2 9/9/2
f 9/9/3 11/11/3 1/1/3
f 1/1/4 11/12/4 10/10/4
f 10/10/5 11/13/5 2/2/5
f 2/2/6 11/13/6 6/6/6
f 6/6/7 11/14/7 5/5/7
f 5/5/8 11/15/8 7/7/8
f 7/7/9 11/15/9 4/4/9
f 4/4/10 11/16/10 8/8/10
f 8/8/11 11/17/11 3/3/11
f 12/18/12 9/9/12 1/1/12
f 1/1/13 10/10/13 12/18/13
f 12/20/14 10/10/14 2/2/14
f 6/6/15 5/5/15 12/20/15
f 12/19/16 5/5/16 7/7/16
f 12/21/17 7/7/17 4/4/17
f 8/8/18 12/21/18 4/4/18
f 2/2/19 6/6/19 12/20/19
f 8/8/20 3/3/20 12/21/20
