# Blender 3.5.1
# www.blender.org
mtllib vaca_cabeza.mtl
o cabeza
v 0.250255 0.810243 0.093457
v 0.399090 0.453040 -0.061478
v 0.265033 0.104547 -0.044659
v -0.265033 0.104547 -0.044659
v -0.399090 0.453040 -0.061478
v -0.250255 0.810243 0.093457
v -0.347320 0.408304 0.263801
v -0.236806 0.671623 0.443630
v -0.000000 0.843112 -0.012067
v -0.194945 -0.141341 0.521816
v -0.351780 0.070150 0.479990
v -0.241332 -0.017989 0.389533
v -0.115140 -0.109246 0.441097
v -0.134400 -0.279135 0.398793
v -0.000000 -0.133035 0.415524
v -0.000000 -0.259451 0.398793
v -0.000000 -0.342631 0.451555
v 0.134400 -0.279135 0.398793
v 0.115140 -0.109246 0.441097
v 0.194945 -0.141341 0.521816
v 0.189972 -0.259451 0.531669
v 0.096724 -0.332042 0.465225
v -0.000000 -0.348036 0.531669
v -0.096724 -0.332042 0.465225
v -0.189972 -0.259451 0.531669
v -0.241461 -0.299315 0.583940
v -0.203805 -0.328598 0.521816
v -0.212353 -0.103715 0.633502
v -0.283773 0.125633 0.643026
v -0.374970 0.338243 0.588902
v -0.394195 0.250969 0.394106
v -0.350986 0.422616 0.464834
v -0.343379 0.514395 0.559247
v -0.267518 0.633487 0.623309
v -0.125861 0.710036 0.600557
v -0.000000 0.751207 0.368657
v -0.000000 0.753047 0.587429
v -0.061480 0.657059 0.765331
v -0.000000 0.661481 0.784229
v 0.061480 0.657059 0.765331
v 0.125861 0.710036 0.600557
v 0.236806 0.671623 0.443630
v 0.267518 0.633487 0.623309
v 0.343379 0.514395 0.559247
v 0.350986 0.422616 0.464834
v 0.347320 0.408304 0.263801
v 0.394195 0.250969 0.394106
v 0.374970 0.338243 0.588902
v 0.351780 0.070150 0.479990
v 0.239269 0.135750 0.263371
v 0.241332 -0.017989 0.389533
v -0.000000 -0.042468 0.384405
v -0.000000 0.067441 0.227291
v -0.239269 0.135750 0.263371
v -0.103647 -0.325839 0.539039
v 0.103647 -0.325839 0.539039
v -0.000000 -0.328598 0.554850
v -0.000000 -0.141341 0.521816
v 0.203805 -0.328598 0.521816
v 0.241461 -0.299315 0.583940
v 0.212353 -0.103715 0.633502
v 0.243282 -0.260006 0.710490
v 0.156444 0.020814 0.716210
v 0.155528 -0.260830 0.821244
v 0.079836 -0.023725 0.782365
v -0.000000 -0.206124 0.800997
v -0.000000 -0.029404 0.816165
v -0.079836 -0.023725 0.782365
v -0.119959 0.230569 0.873073
v -0.156444 0.020814 0.716210
v -0.155528 -0.260830 0.821244
v -0.000000 -0.331713 0.789710
v -0.093131 -0.364590 0.767939
v -0.000000 -0.413609 0.657703
v -0.139213 -0.431942 0.630087
v -0.193329 -0.381417 0.664858
v -0.243282 -0.260006 0.710490
v -0.276479 0.352480 0.833236
v -0.161981 0.313563 0.925370
v -0.000000 0.286150 0.897110
v 0.119959 0.230569 0.873073
v 0.276479 0.352480 0.833236
v 0.283773 0.125633 0.643026
v 0.352479 0.420235 0.657943
v 0.180202 0.577450 0.787983
v 0.095301 0.523906 0.876714
v -0.000000 0.481816 0.899518
v 0.161981 0.313563 0.925370
v -0.095301 0.523906 0.876714
v -0.180202 0.577450 0.787983
v -0.352479 0.420235 0.657943
v -0.000000 -0.000594 0.000165
v -0.633392 0.260108 0.540765
v -0.586044 0.459591 0.630049
v -0.539934 0.251649 0.529363
v -0.445285 0.525380 0.592582
v -0.699827 0.302125 0.649489
v -0.207865 0.771566 0.752909
v -0.257972 0.708865 0.773356
v -0.206337 0.756070 0.812122
v -0.191490 0.703183 0.842988
v -0.126639 0.760480 0.793274
v 0.586044 0.459591 0.630049
v 0.633392 0.260108 0.540765
v 0.539934 0.251649 0.529363
v 0.445285 0.525380 0.592582
v 0.699827 0.302125 0.649489
v 0.207865 0.771566 0.752909
v 0.257972 0.708865 0.773356
v 0.206337 0.756070 0.812122
v 0.191490 0.703183 0.842988
v 0.126639 0.760480 0.793274
v 0.139213 -0.431942 0.630087
v 0.193329 -0.381417 0.664858
v 0.093131 -0.364590 0.767939
v 0.243139 0.740787 -0.338093
v 0.391974 0.383584 -0.493029
v 0.257917 0.035090 -0.476210
v -0.272149 0.035090 -0.476210
v -0.406206 0.383584 -0.493029
v -0.257371 0.740787 -0.338093
v -0.007116 0.773656 -0.443618
v -0.007116 -0.070051 -0.431385
vn -0.9328 0.3060 0.1905
vn -0.9441 0.2924 0.1520
vn -0.7344 -0.6053 -0.3069
vn -0.2987 -0.7480 -0.5927
vn -0.7364 0.2409 -0.6322
vn -0.1590 0.2555 -0.9536
vn -0.0192 0.1312 -0.9912
vn 0.0782 -0.5340 -0.8419
vn -0.0782 -0.5340 -0.8419
vn 0.0192 0.1312 -0.9912
vn 0.1590 0.2555 -0.9536
vn 0.7364 0.2409 -0.6322
vn 0.9239 -0.0703 -0.3760
vn 0.6808 -0.7102 -0.1795
vn 0.1676 -0.8153 -0.5543
vn 0.1179 -0.9908 -0.0668
vn -0.1179 -0.9908 -0.0668
vn -0.1676 -0.8153 -0.5543
vn -0.6808 -0.7102 -0.1795
vn -0.9239 -0.0703 -0.3760
vn -0.8460 0.0400 -0.5317
vn -0.9565 0.1969 -0.2154
vn -0.8079 -0.5850 0.0712
vn -0.8474 -0.2825 0.4496
vn -0.8585 -0.2550 0.4449
vn -0.9749 -0.1509 0.1638
vn -0.9680 0.2506 -0.0167
vn -0.9655 0.2579 -0.0360
vn -0.9095 0.4131 -0.0460
vn -0.8776 0.3772 -0.2960
vn -0.8365 0.5473 -0.0268
vn -0.4590 0.8818 0.1087
vn -0.3201 0.9474 -0.0056
vn -0.3241 0.9460 -0.0080
vn -0.2619 0.8843 0.3866
vn -0.1913 0.8899 0.4141
vn 0.1913 0.8899 0.4141
vn 0.2619 0.8843 0.3866
vn 0.3241 0.9460 -0.0080
vn 0.3201 0.9474 -0.0056
vn 0.4590 0.8818 0.1087
vn 0.8365 0.5473 -0.0268
vn 0.8776 0.3772 -0.2960
vn 0.9095 0.4131 -0.0460
vn 0.9655 0.2579 -0.0360
vn 0.9680 0.2506 -0.0167
vn 0.9749 -0.1509 0.1638
vn 0.7471 -0.4200 -0.5152
vn 0.7512 -0.4127 -0.5152
vn 0.7344 -0.6053 -0.3069
vn 0.2987 -0.7480 -0.5927
vn 0.0749 -0.5671 -0.8202
vn 0.0949 -0.8157 -0.5706
vn -0.0949 -0.8157 -0.5706
vn -0.2850 -0.6058 -0.7429
vn -0.7512 -0.4127 -0.5152
vn -0.7471 -0.4200 -0.5152
vn -0.7339 -0.2900 -0.6142
vn -0.0749 -0.5671 -0.8202
vn -0.2671 -0.3131 -0.9114
vn 0.2671 -0.3131 -0.9114
vn -0.2047 -0.9768 0.0629
vn -0.6101 -0.7923 0.0094
vn 0.2850 -0.6058 -0.7429
vn 0.7339 -0.2900 -0.6142
vn 0.2047 -0.9768 0.0629
vn 0.6101 -0.7923 0.0094
vn 0.1600 -0.0076 -0.9871
vn -0.0000 -0.1737 -0.9848
vn -0.1600 -0.0076 -0.9871
vn -0.0000 0.0929 0.9957
vn -0.0810 0.0475 0.9956
vn 0.0810 0.0475 0.9956
vn -0.0219 0.0822 0.9964
vn 0.8460 0.0400 -0.5317
vn 0.9565 0.1969 -0.2154
vn 0.9845 0.1629 -0.0648
vn 0.9366 0.2855 0.2033
vn 0.7631 0.2236 0.6063
vn 0.5192 0.2971 0.8013
vn -0.0806 0.1362 0.9874
vn 0.3934 -0.0786 0.9160
vn -0.3934 -0.0786 0.9160
vn -0.3850 -0.3634 0.8484
vn -0.7196 -0.3312 0.6103
vn -0.5192 0.2971 0.8013
vn 0.0806 0.1362 0.9874
vn 0.1591 -0.0884 0.9833
vn -0.0380 -0.4746 0.8794
vn 0.1741 -0.8368 0.5191
vn 0.0336 -0.9024 0.4296
vn -0.3919 -0.7682 0.5063
vn -0.7364 -0.6420 -0.2133
vn -0.9025 -0.4149 0.1159
vn -0.5862 -0.4851 0.6489
vn -0.6172 -0.6200 0.4844
vn -0.7631 0.2236 0.6063
vn -0.9366 0.2855 0.2033
vn -0.6175 -0.2236 0.7541
vn -0.6936 -0.4496 0.5628
vn -0.5310 -0.4463 0.7203
vn -0.6089 -0.6201 0.4948
vn 0.0637 -0.5088 0.8586
vn -0.0787 -0.2477 0.9656
vn 0.0787 -0.2477 0.9656
vn 0.3850 -0.3634 0.8484
vn 0.7196 -0.3312 0.6103
vn 0.5310 -0.4463 0.7203
vn 0.6936 -0.4496 0.5628
vn 0.6175 -0.2236 0.7541
vn 0.8474 -0.2825 0.4496
vn 0.8585 -0.2550 0.4449
vn 0.8834 -0.2841 0.3727
vn 0.9243 -0.0633 0.3763
vn 0.7594 0.4242 0.4932
vn 0.7538 0.3866 0.5313
vn 0.3077 0.6553 0.6899
vn 0.2642 0.6574 0.7057
vn -0.0371 0.5397 0.8410
vn 0.1154 0.2584 0.9591
vn -0.1699 -0.0121 0.9854
vn 0.1699 -0.0121 0.9854
vn -0.1154 0.2584 0.9591
vn 0.0371 0.5397 0.8410
vn -0.2642 0.6574 0.7057
vn -0.3077 0.6553 0.6899
vn -0.5414 0.3823 0.7488
vn -0.7594 0.4242 0.4932
vn -0.9243 -0.0633 0.3763
vn -0.8834 -0.2841 0.3727
vn -0.5146 0.3447 0.7851
vn 0.8079 -0.5850 0.0712
vn 0.0219 0.0822 0.9964
vn -0.3840 -0.9148 0.1248
vn -0.2243 -0.9335 0.2796
vn 0.2243 -0.9335 0.2796
vn 0.3840 -0.9148 0.1248
vn 0.9303 -0.3531 0.0995
vn 0.9328 0.3060 0.1905
vn 0.9441 0.2924 0.1520
vn 0.1896 0.9104 0.3677
vn 0.0287 0.9717 0.2346
vn -0.0287 0.9717 0.2346
vn -0.1896 0.9104 0.3677
vn -0.4645 0.4513 -0.7619
vn -0.1373 -0.2133 -0.9673
vn 0.5351 -0.7431 -0.4019
vn -0.1465 0.7152 -0.6834
vn 0.2935 0.6780 0.6739
vn -0.0147 0.5185 0.8550
vn -0.0861 0.1831 0.9793
vn -0.6895 0.4259 -0.5859
vn -0.4371 0.5153 -0.7372
vn -0.4665 0.7041 -0.5354
vn -0.7954 0.5603 -0.2309
vn -0.7361 0.6499 0.1891
vn -0.6999 0.2032 0.6848
vn -0.6939 -0.3400 0.6348
vn -0.8382 -0.4641 0.2865
vn 0.3908 -0.3393 0.8557
vn 0.5390 0.1141 0.8346
vn 0.1670 0.5315 0.8304
vn 0.0063 0.9674 0.2530
vn 0.2493 0.9371 -0.2443
vn 0.8198 0.5548 -0.1419
vn 0.0373 -0.6319 0.7742
vn 0.2706 -0.8308 0.4864
vn 0.0714 -0.6538 0.7533
vn -0.9303 -0.3531 0.0995
vn -0.9235 -0.3663 0.1143
vn -0.7538 0.3866 0.5313
vn -0.8698 0.3946 0.2963
vn 0.4645 0.4513 -0.7619
vn 0.1373 -0.2133 -0.9673
vn -0.5351 -0.7431 -0.4019
vn 0.1465 0.7152 -0.6834
vn -0.2935 0.6780 0.6739
vn 0.0147 0.5185 0.8550
vn 0.0861 0.1831 0.9793
vn 0.6895 0.4259 -0.5859
vn 0.4371 0.5153 -0.7372
vn 0.4665 0.7041 -0.5354
vn 0.7954 0.5604 -0.2309
vn 0.7361 0.6499 0.1891
vn 0.6999 0.2032 0.6848
vn 0.6939 -0.3400 0.6348
vn 0.8382 -0.4641 0.2865
vn -0.3908 -0.3393 0.8557
vn -0.5390 0.1141 0.8346
vn -0.1670 0.5315 0.8304
vn -0.0063 0.9674 0.2530
vn -0.2493 0.9371 -0.2443
vn -0.8198 0.5548 -0.1419
vn -0.0373 -0.6319 0.7742
vn -0.2706 -0.8308 0.4864
vn -0.0714 -0.6538 0.7533
vn 0.9235 -0.3663 0.1143
vn 0.8698 0.3946 0.2963
vn -0.0637 -0.5088 0.8586
vn 0.6089 -0.6201 0.4948
vn 0.5146 0.3447 0.7851
vn 0.5414 0.3823 0.7488
vn -0.9845 0.1629 -0.0648
vn -0.7548 -0.6367 -0.1574
vn 0.1169 -0.6826 -0.7213
vn 0.2222 -0.7515 -0.6212
vn -0.2222 -0.7515 -0.6212
vn -0.1169 -0.6826 -0.7213
vn 0.7548 -0.6367 -0.1574
vn 0.7364 -0.6420 -0.2133
vn 0.9025 -0.4149 0.1159
vn 0.5862 -0.4851 0.6489
vn 0.6172 -0.6200 0.4844
vn 0.0380 -0.4746 0.8794
vn -0.1591 -0.0884 0.9833
vn -0.1741 -0.8368 0.5191
vn -0.0336 -0.9024 0.4296
vn 0.3919 -0.7682 0.5063
vn 0.9332 -0.3569 0.0421
vn -0.0000 0.1019 -0.9948
vn 0.1942 0.9680 -0.1590
vn -0.9141 0.4024 -0.0497
vn -0.1918 0.9695 -0.1529
vn -0.9320 -0.3550 0.0725
vn 0.9070 0.4132 -0.0815
vn 0.3855 -0.9119 0.1404
vn -0.3866 -0.9095 0.1528
vn -0.0000 0.1018 -0.9948
vt 0.410000 0.440000
vt 0.430000 0.370000
vt 0.410000 0.280000
vt 0.410000 0.280000
vt 0.430000 0.370000
vt 0.410000 0.550000
vt 0.410000 0.440000
vt 0.010000 0.760000
vt 0.350000 0.370000
vt 0.350000 0.440000
vt 0.010000 0.910000
vt 0.350000 0.550000
vt 0.410000 0.490000
vt 0.120000 0.600000
vt 0.600000 0.750000
vt 0.100000 0.680000
vt 0.060000 0.640000
vt 0.060000 0.590000
vt 0.050000 0.520000
vt 0.010000 0.560000
vt 0.010000 0.520000
vt 0.010000 0.480000
vt 0.050000 0.520000
vt 0.060000 0.590000
vt 0.120000 0.600000
vt 0.550000 0.600000
vt 0.600000 0.750000
vt 0.110000 0.510000
vt 0.600000 0.830000
vt 0.050000 0.480000
vt 0.010000 0.450000
vt 0.710000 0.870000
vt 0.050000 0.480000
vt 0.110000 0.510000
vt 0.600000 0.830000
vt 0.160000 0.540000
vt 0.600000 0.640000
vt 0.140000 0.520000
vt 0.190000 0.610000
vt 0.160000 0.700000
vt 0.100000 0.800000
vt 0.870000 0.730000
vt 0.730000 0.670000
vt 0.050000 0.730000
vt 0.060000 0.810000
vt 0.900000 0.770000
vt 0.900000 0.830000
vt 0.070000 0.840000
vt 0.990000 0.630000
vt 0.100000 0.900000
vt 0.090000 0.950000
vt 0.940000 0.630000
vt 0.010000 0.990000
vt 0.350000 0.490000
vt 0.070000 0.990000
vt 0.160000 0.950000
vt 0.290000 0.990000
vt 0.880000 0.630000
vt 0.190000 0.990000
vt 0.340000 0.990000
vt 0.160000 0.950000
vt 0.380000 0.990000
vt 0.880000 0.630000
vt 0.090000 0.950000
vt 0.940000 0.630000
vt 0.010000 0.910000
vt 0.350000 0.440000
vt 0.570000 0.900000
vt 0.990000 0.630000
vt 0.100000 0.900000
vt 0.900000 0.830000
vt 0.070000 0.840000
vt 0.060000 0.810000
vt 0.900000 0.770000
vt 0.010000 0.760000
vt 0.350000 0.370000
vt 0.050000 0.730000
vt 0.100000 0.800000
vt 0.570000 0.800000
vt 0.870000 0.730000
vt 0.730000 0.670000
vt 0.100000 0.680000
vt 0.570000 0.680000
vt 0.010000 0.680000
vt 0.350000 0.280000
vt 0.060000 0.640000
vt 0.010000 0.590000
vt 0.010000 0.620000
vt 0.350000 0.230000
vt 0.010000 0.680000
vt 0.350000 0.280000
vt 0.060000 0.450000
vt 0.660000 0.860000
vt 0.060000 0.450000
vt 0.660000 0.860000
vt 0.710000 0.630000
vt 0.140000 0.410000
vt 0.710000 0.750000
vt 0.600000 0.640000
vt 0.140000 0.520000
vt 0.160000 0.540000
vt 0.190000 0.610000
vt 0.480000 0.610000
vt 0.220000 0.550000
vt 0.240000 0.660000
vt 0.430000 0.660000
vt 0.270000 0.540000
vt 0.300000 0.630000
vt 0.370000 0.630000
vt 0.340000 0.550000
vt 0.340000 0.630000
vt 0.300000 0.630000
vt 0.280000 0.750000
vt 0.240000 0.660000
vt 0.270000 0.540000
vt 0.300000 0.470000
vt 0.270000 0.480000
vt 0.230000 0.410000
vt 0.190000 0.460000
vt 0.210000 0.500000
vt 0.220000 0.550000
vt 0.210000 0.820000
vt 0.270000 0.800000
vt 0.340000 0.800000
vt 0.390000 0.750000
vt 0.460000 0.820000
vt 0.510000 0.700000
vt 0.560000 0.820000
vt 0.870000 0.870000
vt 0.730000 0.710000
vt 0.110000 0.820000
vt 0.940000 0.630000
vt 0.460000 0.920000
vt 0.390000 0.910000
vt 0.340000 0.900000
vt 0.400000 0.800000
vt 0.280000 0.910000
vt 0.940000 0.630000
vt 0.210000 0.920000
vt 0.870000 0.870000
vt 0.730000 0.710000
vt 0.110000 0.820000
vt 0.400000 0.230000
vt 0.760000 0.760000
vt 0.840000 0.660000
vt 0.800000 0.830000
vt 0.800000 0.730000
vt 0.800000 0.650000
vt 0.860000 0.830000
vt 0.730000 0.830000
vt 0.860000 0.710000
vt 0.940000 0.710000
vt 0.980000 0.720000
vt 0.940000 0.740000
vt 0.940000 0.710000
vt 0.900000 0.720000
vt 0.800000 0.830000
vt 0.760000 0.760000
vt 0.840000 0.660000
vt 0.800000 0.730000
vt 0.800000 0.650000
vt 0.860000 0.830000
vt 0.730000 0.830000
vt 0.860000 0.710000
vt 0.940000 0.710000
vt 0.980000 0.720000
vt 0.940000 0.740000
vt 0.940000 0.710000
vt 0.900000 0.720000
vt 0.190000 0.460000
vt 0.210000 0.500000
vt 0.270000 0.480000
vt 0.410000 0.440000
vt 0.430000 0.370000
vt 0.410000 0.280000
vt 0.410000 0.280000
vt 0.430000 0.370000
vt 0.410000 0.440000
vt 0.410000 0.550000
vt 0.410000 0.490000
vt 0.400000 0.230000
s 0
usemtl material_009C21CE
f 6/7/1 5/5/1 7/9/1
f 6/7/2 7/9/2 8/10/2
f 10/14/3 11/16/3 12/17/3
f 13/18/4 10/14/4 12/17/4
f 14/19/5 10/14/5 13/18/5
f 14/19/6 13/18/6 15/20/6
f 16/21/7 14/19/7 15/20/7
f 16/21/8 17/22/8 14/19/8
f 16/21/9 18/23/9 17/22/9
f 16/21/10 15/20/10 18/23/10
f 18/23/11 15/20/11 19/24/11
f 18/23/12 19/24/12 20/25/12
f 20/25/13 21/28/13 18/23/13
f 18/23/14 21/28/14 22/30/14
f 17/22/15 18/23/15 22/30/15
f 17/22/16 22/30/16 23/31/16
f 17/22/17 23/31/17 24/33/17
f 17/22/18 24/33/18 14/19/18
f 14/19/19 24/33/19 25/34/19
f 10/14/20 14/19/20 25/34/20
f 26/36/21 10/14/21 27/38/21
f 28/39/22 10/14/22 26/36/22
f 11/16/23 10/14/23 28/39/23
f 29/40/24 11/16/24 28/39/24
f 11/16/25 29/40/25 30/41/25
f 30/41/26 31/44/26 11/16/26
f 30/41/27 32/45/27 31/44/27
f 32/45/28 7/8/28 31/44/28
f 7/8/29 32/45/29 8/11/29
f 33/48/30 8/11/30 32/45/30
f 8/11/31 33/48/31 34/50/31
f 8/11/32 34/50/32 35/51/32
f 35/51/33 36/53/33 8/11/33
f 35/51/34 37/55/34 36/53/34
f 38/56/35 37/55/35 35/51/35
f 38/56/36 39/59/36 37/55/36
f 40/61/37 37/55/37 39/59/37
f 40/61/38 41/64/38 37/55/38
f 41/64/39 36/53/39 37/55/39
f 41/64/40 42/66/40 36/53/40
f 42/66/41 41/64/41 43/70/41
f 42/66/42 43/70/42 44/72/42
f 44/72/43 45/73/43 42/66/43
f 46/75/44 42/66/44 45/73/44
f 45/73/45 47/77/45 46/75/45
f 48/78/46 47/77/46 45/73/46
f 48/78/47 49/82/47 47/77/47
f 50/84/48 47/77/48 49/82/48
f 49/82/49 51/86/49 50/84/49
f 20/25/50 51/86/50 49/82/50
f 19/24/51 51/86/51 20/25/51
f 51/86/52 19/24/52 52/87/52
f 53/88/53 51/86/53 52/87/53
f 53/88/54 52/87/54 12/17/54
f 54/90/55 53/88/55 12/17/55
f 11/16/56 54/90/56 12/17/56
f 54/90/57 11/16/57 31/44/57
f 7/8/58 54/90/58 31/44/58
f 12/17/59 52/87/59 13/18/59
f 52/87/60 15/20/60 13/18/60
f 52/87/61 19/24/61 15/20/61
f 24/33/62 23/31/62 55/92/62
f 24/33/63 55/92/63 25/34/63
f 50/84/64 51/86/64 53/88/64
f 46/75/65 47/77/65 50/84/65
f 22/30/66 56/94/66 23/31/66
f 22/30/67 21/28/67 56/94/67
f 57/96/68 27/37/68 10/15/68
f 57/96/69 10/15/69 58/98/69
f 57/96/69 58/98/69 20/27/69
f 57/96/70 20/27/70 59/99/70
f 56/95/71 20/27/71 58/98/71
f 56/95/72 58/98/72 23/32/72
f 55/93/73 23/32/73 58/98/73
f 55/93/71 58/98/71 10/15/71
f 25/35/74 55/93/74 10/15/74
f 60/101/75 59/100/75 20/25/75
f 61/102/76 60/101/76 20/25/76
f 61/102/77 62/104/77 60/101/77
f 63/105/78 62/104/78 61/102/78
f 63/105/79 64/107/79 62/104/79
f 65/108/80 64/107/80 63/105/80
f 66/110/81 64/107/81 65/108/81
f 67/111/82 66/110/82 65/108/82
f 67/111/83 68/112/83 66/110/83
f 68/112/84 67/111/84 69/113/84
f 68/112/85 69/113/85 70/114/85
f 68/112/86 70/114/86 71/115/86
f 66/110/87 68/112/87 71/115/87
f 72/116/88 66/110/88 71/115/88
f 72/116/89 71/115/89 73/117/89
f 74/118/90 72/116/90 73/117/90
f 75/119/91 74/118/91 73/117/91
f 75/119/92 73/117/92 76/120/92
f 76/120/93 26/36/93 75/119/93
f 76/120/94 77/121/94 26/36/94
f 73/117/95 77/121/95 76/120/95
f 73/117/96 71/115/96 77/121/96
f 70/114/97 77/121/97 71/115/97
f 70/114/98 28/39/98 77/121/98
f 70/114/99 29/40/99 28/39/99
f 70/114/100 78/122/100 29/40/100
f 70/114/101 69/113/101 78/122/101
f 69/113/102 79/123/102 78/122/102
f 80/124/103 79/123/103 69/113/103
f 67/111/104 80/124/104 69/113/104
f 67/111/105 81/125/105 80/124/105
f 65/109/106 81/125/106 67/111/106
f 65/109/107 63/106/107 81/125/107
f 63/106/108 82/126/108 81/125/108
f 63/106/109 83/127/109 82/126/109
f 63/106/110 61/103/110 83/127/110
f 83/127/111 61/103/111 49/83/111
f 49/83/112 48/79/112 83/127/112
f 48/79/113 82/126/113 83/127/113
f 84/128/114 82/126/114 48/79/114
f 84/128/115 85/133/115 82/126/115
f 43/68/116 85/133/116 84/128/116
f 40/62/117 86/134/117 85/133/117
f 86/134/118 40/62/118 39/60/118
f 86/134/119 39/60/119 87/135/119
f 87/135/120 88/136/120 86/134/120
f 87/135/121 80/124/121 88/136/121
f 87/135/122 79/123/122 80/124/122
f 87/135/123 89/137/123 79/123/123
f 89/137/124 87/135/124 39/60/124
f 89/137/125 39/60/125 38/57/125
f 38/57/126 90/139/126 89/137/126
f 78/122/127 89/137/127 90/139/127
f 91/142/128 78/122/128 90/139/128
f 91/142/129 30/41/129 78/122/129
f 30/41/130 29/40/130 78/122/130
f 78/122/131 79/123/131 89/137/131
f 49/83/132 61/103/132 20/26/132
f 21/29/133 20/27/133 56/95/133
f 92/143/134 54/91/134 4/4/134
f 92/143/135 53/89/135 54/91/135
f 92/143/136 50/85/136 53/89/136
f 92/143/137 3/3/137 50/85/137
f 2/2/138 46/76/138 3/3/138
f 1/1/139 46/76/139 2/2/139
f 1/1/140 42/67/140 46/76/140
f 1/1/141 36/54/141 42/67/141
f 1/1/142 9/13/142 36/54/142
f 6/6/143 36/54/143 9/13/143
f 6/6/144 8/12/144 36/54/144
f 32/46/145 93/144/145 94/146/145
f 93/144/146 32/46/146 95/147/146
f 32/46/147 30/42/147 95/147/147
f 96/149/148 33/47/148 32/46/148
f 96/149/149 91/140/149 33/47/149
f 91/140/150 96/149/150 94/146/150
f 91/140/151 94/146/151 97/150/151
f 97/150/152 94/146/152 93/144/152
f 96/149/153 32/46/153 94/146/153
f 34/49/154 98/152/154 35/52/154
f 98/152/155 34/49/155 99/153/155
f 99/153/156 100/154/156 98/152/156
f 99/153/157 101/155/157 100/154/157
f 99/153/158 90/138/158 101/155/158
f 99/153/159 34/49/159 90/138/159
f 90/138/160 38/58/160 101/155/160
f 101/155/161 38/58/161 102/156/161
f 101/155/162 102/156/162 100/154/162
f 100/154/163 102/156/163 98/152/163
f 102/156/164 35/52/164 98/152/164
f 35/52/165 102/156/165 38/58/165
f 91/141/166 93/145/166 95/148/166
f 93/145/167 91/141/167 97/151/167
f 91/141/168 95/148/168 30/43/168
f 5/5/169 4/4/169 7/9/169
f 4/4/170 54/91/170 7/9/170
f 34/50/171 91/142/171 90/139/171
f 33/48/172 91/142/172 34/50/172
f 45/74/173 103/157/173 104/158/173
f 104/158/174 105/160/174 45/74/174
f 45/74/175 105/160/175 48/80/175
f 106/162/176 45/74/176 44/71/176
f 106/162/177 44/71/177 84/129/177
f 84/129/178 103/157/178 106/162/178
f 84/129/179 107/163/179 103/157/179
f 107/163/180 104/158/180 103/157/180
f 106/162/181 103/157/181 45/74/181
f 43/69/182 41/65/182 108/165/182
f 108/165/183 109/166/183 43/69/183
f 109/166/184 108/165/184 110/167/184
f 109/166/185 110/167/185 111/168/185
f 109/166/186 111/168/186 85/132/186
f 109/166/187 85/132/187 43/69/187
f 85/132/188 111/168/188 40/63/188
f 111/168/189 112/169/189 40/63/189
f 111/168/190 110/167/190 112/169/190
f 110/167/191 108/165/191 112/169/191
f 112/169/192 108/165/192 41/65/192
f 41/65/193 40/63/193 112/169/193
f 84/130/194 105/161/194 104/159/194
f 104/159/195 107/164/195 84/130/195
f 84/130/196 48/81/196 105/161/196
f 3/3/197 46/76/197 50/85/197
f 44/72/198 43/70/198 84/131/198
f 80/124/199 81/125/199 88/136/199
f 81/125/200 82/126/200 88/136/200
f 82/126/201 86/134/201 88/136/201
f 82/126/202 85/133/202 86/134/202
f 28/39/203 26/36/203 77/121/203
f 27/38/204 75/119/204 26/36/204
f 27/38/205 57/97/205 75/119/205
f 57/97/206 74/118/206 75/119/206
f 57/97/207 113/170/207 74/118/207
f 59/100/208 113/170/208 57/97/208
f 59/100/209 60/101/209 113/170/209
f 114/171/210 113/170/210 60/101/210
f 114/171/211 60/101/211 62/104/211
f 115/172/212 114/171/212 62/104/212
f 115/172/213 62/104/213 64/107/213
f 72/116/214 115/172/214 64/107/214
f 72/116/215 64/107/215 66/110/215
f 74/118/216 115/172/216 72/116/216
f 113/170/217 115/172/217 74/118/217
f 113/170/218 114/171/218 115/172/218
f 3/3/219 117/174/219 2/2/219
f 120/177/220 122/180/220 117/174/220
f 9/13/221 116/173/221 122/180/221
f 5/5/222 121/178/222 120/177/222
f 9/13/223 121/179/223 6/6/223
f 4/4/224 120/177/224 119/176/224
f 2/2/225 116/173/225 1/1/225
f 3/3/226 123/181/226 118/175/226
f 4/4/227 123/181/227 92/143/227
f 3/3/219 118/175/219 117/174/219
f 117/174/220 118/175/220 119/176/220
f 118/175/220 123/181/220 119/176/220
f 119/176/220 120/177/220 117/174/220
f 120/177/220 121/179/228 122/180/220
f 122/180/220 116/173/228 117/174/220
f 9/13/221 1/1/221 116/173/221
f 5/5/222 6/7/222 121/178/222
f 9/13/223 122/180/223 121/179/223
f 4/4/224 5/5/224 120/177/224
f 2/2/225 117/174/225 116/173/225
f 3/3/226 92/143/226 123/181/226
f 4/4/227 119/176/227 123/181/227
